<svg width="48" height="48" viewBox="0 0 48 48" fill="none" xmlns="http://www.w3.org/2000/svg">
    <g clip-path="url(#clip0)">
        <path
            d="M21.8781 16.1528H18.0082V12.2829C18.0082 11.7454 17.5782 11.3154 17.0407 11.3154H12.2034C11.6659 11.3154 11.2359 11.7454 11.2359 12.2829V16.1528H7.36598C6.82849 16.1528 6.3985 16.5828 6.3985 17.1203V21.9577C6.3985 22.4952 6.82849 22.9252 7.36598 22.9252H11.2359V26.7951C11.2359 27.3326 11.6659 27.7625 12.2034 27.7625H17.0407C17.5782 27.7625 18.0082 27.3326 18.0082 26.7951V22.9252H21.8781C22.4156 22.9252 22.8456 22.4952 22.8456 21.9577V17.1203C22.8456 16.5828 22.4156 16.1528 21.8781 16.1528ZM20.9644 21.044H17.0945C16.557 21.044 16.127 21.4739 16.127 22.0114V25.8813H13.1708V22.0114C13.1708 21.4739 12.7408 21.044 12.2034 21.044H8.33345V18.0878H12.2034C12.7408 18.0878 13.1708 17.6578 13.1708 17.1203V13.2504H16.127V17.1203C16.127 17.6578 16.557 18.0878 17.0945 18.0878H20.9644V21.044Z"
            fill="#F1D427" />
        <path
            d="M46.1188 21.5812H44.6138L38.9702 10.8314C38.809 10.509 38.4865 10.294 38.1102 10.294H37.5728V9.91772C37.5728 8.19776 36.1753 6.80029 34.4553 6.80029C32.7354 6.80029 31.3379 8.19776 31.3379 9.91772V10.294H30.3704V9.16524C30.3704 8.09026 29.5105 7.28403 28.4892 7.28403H1.88362C0.80865 7.28403 0.00241987 8.14401 0.00241987 9.16524V34.2121C-0.0513288 35.2871 0.80865 36.0933 1.88362 36.0933H7.25849C7.74223 38.9958 10.2147 41.1995 13.2783 41.1995C16.342 41.1995 18.8145 38.9958 19.2982 36.0933H28.4892C28.8117 36.0933 29.188 35.9858 29.4567 35.8246C29.7254 35.9858 30.0479 36.0933 30.4242 36.0933H31.7679C32.2516 38.9958 34.7241 41.1995 37.7878 41.1995C40.7977 41.1995 43.3239 38.9958 43.8076 36.0933H46.1188C47.1938 36.0933 48 35.2334 48 34.2121V23.4624C48 22.3874 47.14 21.5812 46.1188 21.5812ZM13.2246 39.3183C10.9134 39.3183 9.0322 37.437 9.0322 35.1259C9.0322 32.8147 10.9134 30.9335 13.2246 30.9335C15.5358 30.9335 17.417 32.8147 17.417 35.1259C17.417 37.4908 15.5358 39.3183 13.2246 39.3183ZM28.4355 23.4624V34.2121H19.2445C18.7607 31.3097 16.2883 29.106 13.2246 29.106C10.1609 29.106 7.68848 31.3097 7.20474 34.2121H1.88362V9.16524H28.4355V23.4624ZM34.4553 8.6815C35.1541 8.6815 35.6916 9.21898 35.6916 9.91772V10.294H33.2191V9.91772C33.2191 9.21898 33.7566 8.6815 34.4553 8.6815ZM30.3167 12.1752H32.2516H36.6053H37.519L42.3026 21.5274H30.3167V12.1752ZM37.6803 39.3183C35.3691 39.3183 33.4879 37.437 33.4879 35.1259C33.4879 32.8147 35.3691 30.9335 37.6803 30.9335C39.9914 30.9335 41.8727 32.8147 41.8727 35.1259C41.8189 37.4908 39.9377 39.3183 37.6803 39.3183ZM45.9576 27.8698H45.3126V26.6873H45.9576V27.8698ZM45.9576 24.7524H44.3451C43.8076 24.7524 43.3776 25.1823 43.3776 25.7198V28.8373C43.3776 29.3747 43.8076 29.8047 44.3451 29.8047H45.9576V34.2121H43.6464C43.1626 31.3097 40.6902 29.106 37.6265 29.106C34.6166 29.106 32.0904 31.3097 31.6067 34.2121H30.2629V23.4624H45.9576V24.7524Z"
            fill="#ADB2B2" />
        <path
            d="M37.6802 32.0088C35.9065 32.0088 34.5091 33.46 34.5091 35.18C34.5091 36.9537 35.9603 38.3511 37.6802 38.3511C39.4539 38.3511 40.8514 36.8999 40.8514 35.18C40.8514 33.4063 39.4002 32.0088 37.6802 32.0088ZM37.6802 36.4162C36.9815 36.4162 36.3903 35.8249 36.3903 35.1262C36.3903 34.4275 36.9815 33.8362 37.6802 33.8362C38.379 33.8362 38.9702 34.4275 38.9702 35.1262C38.9165 35.8787 38.379 36.4162 37.6802 36.4162Z"
            fill="#ADB2B2" />
        <path
            d="M13.2246 32.0088C11.4509 32.0088 10.0534 33.46 10.0534 35.18C10.0534 36.9537 11.5047 38.3511 13.2246 38.3511C14.9983 38.3511 16.3958 36.8999 16.3958 35.18C16.3958 33.4063 14.9983 32.0088 13.2246 32.0088ZM13.2246 36.4162C12.5259 36.4162 11.9346 35.8249 11.9346 35.1262C11.9346 34.4275 12.5259 33.8362 13.2246 33.8362C13.9233 33.8362 14.5146 34.4275 14.5146 35.1262C14.5146 35.8787 13.9233 36.4162 13.2246 36.4162Z"
            fill="#ADB2B2" />
        <path
            d="M36.0678 14.3251C35.7453 13.9489 35.1003 13.8951 34.7241 14.2176L32.2517 16.3676C31.8217 16.7438 31.7679 17.335 32.1442 17.7113C32.3591 17.9263 32.5741 18.0338 32.8429 18.0338C33.0579 18.0338 33.2729 17.98 33.4879 17.8188L35.9603 15.6688C36.3366 15.3463 36.3903 14.7014 36.0678 14.3251Z"
            fill="#ADB2B2" />
        <path
            d="M38.4327 16.5292C38.1102 16.153 37.4653 16.0992 37.089 16.4217L34.6166 18.5717C34.1866 18.8942 34.1328 19.4854 34.4553 19.8616C34.6703 20.0766 34.9391 20.2379 35.2078 20.2379C35.4228 20.2379 35.6378 20.1841 35.8528 20.0229L38.3252 17.8729C38.7015 17.5504 38.7552 16.9055 38.4327 16.5292Z"
            fill="#ADB2B2" />
    </g>
    <defs>
        <clipPath id="clip0">
            <rect width="48" height="48" fill="white" />
        </clipPath>
    </defs>
</svg>