<svg width="48" height="48" viewBox="0 0 48 48" fill="none" xmlns="http://www.w3.org/2000/svg">
    <g clip-path="url(#clip0)">
        <path
            d="M34.0577 6.2794C27.2461 6.2794 21.765 11.8138 21.765 18.5721C21.765 25.3304 27.2994 30.918 34.0577 30.918C40.816 30.918 46.3503 25.3836 46.3503 18.6253C46.3503 11.867 40.8692 6.2794 34.0577 6.2794ZM34.0577 29.0022C28.3104 29.0022 23.6275 24.3193 23.6275 18.5721C23.6275 12.8249 28.3104 8.14193 34.0577 8.14193C39.8049 8.14193 44.4878 12.8249 44.4878 18.5721C44.4878 24.3193 39.8049 29.0022 34.0577 29.0022Z"
            fill="#ADB2B2" />
        <path
            d="M40.2306 15.5921H37.0909V12.4524C37.0909 11.9202 36.6652 11.4945 36.133 11.4945H31.9822C31.4501 11.4945 31.0244 11.9202 31.0244 12.4524V15.5921H27.8847C27.3525 15.5921 26.9268 16.0178 26.9268 16.5499V20.7007C26.9268 21.2329 27.3525 21.6586 27.8847 21.6586H31.0244V24.7983C31.0244 25.3304 31.4501 25.7561 31.9822 25.7561H36.133C36.6652 25.7561 37.0909 25.3304 37.0909 24.7983V21.6586H40.2306C40.7627 21.6586 41.1885 21.2329 41.1885 20.7007V16.5499C41.1885 16.0178 40.7627 15.5921 40.2306 15.5921ZM39.2727 19.7428H36.133C35.6009 19.7428 35.1752 20.1686 35.1752 20.7007V23.8404H32.9401V20.7007C32.9401 20.1686 32.5144 19.7428 31.9822 19.7428H28.8426V17.5078H31.9822C32.5144 17.5078 32.9401 17.0821 32.9401 16.5499V13.357H35.1752V16.5499C35.1752 17.0821 35.6009 17.5078 36.133 17.5078H39.2727V19.7428Z"
            fill="#F1D427" />
        <path
            d="M19.051 41.561L17.6142 41.0288L19.3171 40.2306C19.6896 40.071 19.9024 39.6985 19.8492 39.3259C19.8492 38.9534 19.5831 38.5809 19.2106 38.4745L17.827 37.9956V37.0909C18.0931 37.0909 18.4124 37.1441 18.6785 37.1441C19.2106 37.1441 19.6364 36.7184 19.6364 36.1863V27.459C19.6364 26.9268 19.2106 26.5011 18.6785 26.5011H15.1131C11.0155 26.5011 8.94012 24 8.94012 18.9978C8.83369 13.8891 11.2284 10.6962 15.0066 10.6962H18.5721C19.1042 10.6962 19.5299 10.2705 19.5299 9.73836V0.957871C19.5299 0.425721 19.1042 0 18.5721 0C17.2417 0 16.0177 0.159645 14.7938 0.478936C14.7406 0.478936 14.6874 0.478936 14.6341 0.532151C7.18403 2.55432 1.64966 9.84479 1.64966 18.6253C1.64966 27.3526 7.18403 34.643 14.6341 36.612C14.6874 36.6652 14.7406 36.6652 14.7938 36.6652C15.1663 36.7716 15.4856 36.8248 15.8581 36.8781V38.6874C15.8581 39.0067 16.0177 39.3259 16.337 39.4856L14.6341 40.2306C14.2616 40.3902 14.0488 40.7628 14.102 41.1353C14.102 41.5078 14.3681 41.8803 14.7406 41.9867L16.2838 42.5721L14.6874 43.3703C14.3681 43.5299 14.1552 43.9024 14.1552 44.2749C14.1552 44.6474 14.4213 44.9667 14.7938 45.1264L16.0709 45.6053V47.0421C16.0709 47.5743 16.4967 48 17.0288 48C17.561 48 17.9867 47.5743 17.9867 47.0421V44.9667C17.9867 44.5942 17.7738 44.2749 17.5078 44.1153L19.1574 43.3171C19.4767 43.1574 19.6896 42.7849 19.6896 42.4124C19.6896 42.0399 19.4235 41.7206 19.051 41.561ZM15.9645 2.18182C16.4967 2.07539 17.082 2.02217 17.6674 1.96896V8.78049H15.9645V2.18182ZM14.0488 34.4834C7.92904 32.3548 3.51219 26.0222 3.51219 18.5721C3.51219 11.122 7.98225 4.84257 14.0488 2.71397V8.88692C10.5898 9.25942 6.97117 12.0798 6.97117 18.9978C6.97117 24.5854 9.52549 27.9379 14.0488 28.3636V34.4834ZM15.9645 35.0155V28.4169H17.6674V35.2284C17.082 35.1752 16.5499 35.122 15.9645 35.0155Z"
            fill="#ADB2B2" />
    </g>
    <defs>
        <clipPath id="clip0">
            <rect width="48" height="48" fill="white" />
        </clipPath>
    </defs>
</svg>