<svg width="350" height="248" viewBox="0 0 350 248" fill="none" xmlns="http://www.w3.org/2000/svg">
    <g clip-path="url(#clip0)">
        <path opacity="0.1"
            d="M116.361 247.861C133.405 247.861 147.223 245.641 147.223 242.902C147.223 240.164 133.405 237.944 116.361 237.944C99.3158 237.944 85.4983 240.164 85.4983 242.902C85.4983 245.641 99.3158 247.861 116.361 247.861Z"
            fill="#0ABAB5" />
        <path opacity="0.1"
            d="M284.123 248C305.392 248 322.634 245.78 322.634 243.042C322.634 240.303 305.392 238.083 284.123 238.083C262.854 238.083 245.612 240.303 245.612 243.042C245.612 245.78 262.854 248 284.123 248Z"
            fill="#0ABAB5" />
        <path opacity="0.1"
            d="M4.38353 107.154H36.5285V150.982H6.73684C6.65766 151.432 6.58164 151.885 6.49929 152.338H36.5285V187.684C36.4747 187.668 36.4272 187.649 36.3765 187.63C35.5276 187.294 34.6851 186.939 33.8426 186.559L33.3042 186.315C32.4596 185.916 31.615 185.494 30.7704 185.048C30.4758 184.893 30.1812 184.731 29.8898 184.566C25.2009 181.939 20.9413 178.61 17.2586 174.694C17.1509 174.589 17.0496 174.478 16.9419 174.377C16.4288 173.819 15.9252 173.255 15.4374 172.679L14.899 172.045C14.3225 171.338 13.7651 170.613 13.2235 169.878C13.1443 169.77 13.0683 169.662 12.9859 169.561C10.7832 166.506 8.95427 163.198 7.53817 159.707C7.49383 159.603 7.45582 159.489 7.41464 159.391C6.97967 158.271 6.59431 157.141 6.25858 156C6.11288 155.522 5.97352 155.05 5.85316 154.552C5.80882 154.407 5.77081 154.264 5.73597 154.122C3.93694 147.097 3.72473 139.801 3.72473 132.555C3.72473 131.709 3.72473 130.86 3.72473 130.02C3.72473 127.089 3.75957 124.139 3.81025 121.193C3.81025 120.429 3.84192 119.669 3.85776 118.902C3.9021 116.957 3.96545 115.011 4.0478 113.066C4.0668 112.524 4.09214 111.986 4.12064 111.447C4.12064 111.136 4.13648 110.826 4.16815 110.516C4.24417 109.388 4.30752 108.269 4.38353 107.154Z"
            fill="#0ABAB5" />
        <path opacity="0.1"
            d="M36.5285 58.3548H18.8961C21.7624 53.867 24.8941 49.5546 28.2745 45.4405C30.8939 42.2215 33.6589 39.0848 36.5285 36.0622V58.3548Z"
            fill="#0ABAB5" />
        <path opacity="0.1"
            d="M36.5285 59.7109V105.798H4.48486C4.48486 105.665 4.50703 105.528 4.51654 105.395C4.54504 105.031 4.57355 104.667 4.60522 104.306C4.64006 103.881 4.67807 103.453 4.71924 103.038C4.76042 102.623 4.80476 102.116 4.85227 101.657C4.89978 101.197 4.94412 100.732 4.99797 100.272C5.05181 99.8128 5.09932 99.3534 5.15633 98.8971C5.21334 98.4409 5.26402 97.9783 5.3242 97.522C5.37171 97.1418 5.42238 96.7648 5.47306 96.3846C5.54591 95.8492 5.62193 95.3105 5.70428 94.7782C5.70428 94.699 5.72645 94.6167 5.73912 94.5406C6.31721 90.6441 7.1049 86.7815 8.09876 82.9698C9.13909 78.9713 10.4676 75.0534 12.0737 71.2469C13.7808 67.2648 15.7795 63.4143 18.0536 59.7267L36.5285 59.7109Z"
            fill="#0ABAB5" />
        <path opacity="0.1"
            d="M44.2029 107.151V150.982H112.861V107.151H44.2029ZM44.2029 152.335V189.975C44.5956 190.057 44.9852 190.136 45.3716 190.203C45.8974 190.304 46.42 190.396 46.9553 190.475C47.0566 190.491 47.1611 190.507 47.272 190.516C47.481 190.551 47.6964 190.58 47.9055 190.608C48.4344 190.681 48.9602 190.741 49.4891 190.789C49.7393 190.814 49.9927 190.837 50.2461 190.855L50.8574 190.903C51.19 190.928 51.5194 190.947 51.8456 190.957C52.0483 190.957 52.251 190.976 52.46 190.982C52.6184 190.982 52.7768 190.982 52.9415 190.982C53.1062 190.982 53.3406 190.982 53.5401 190.982C53.8125 190.982 54.0849 190.982 54.3541 190.982H54.7183C54.9907 190.982 55.2631 190.982 55.5323 190.957H55.5513C55.7382 190.957 55.9282 190.957 56.1183 190.932C56.171 190.935 56.2239 190.935 56.2767 190.932C56.435 190.932 56.5934 190.932 56.7454 190.909H56.8563L57.9173 190.827C58.2657 190.795 58.6173 190.754 58.972 190.716L59.6942 190.631C62.6321 190.219 65.5374 189.6 68.3884 188.78C74.7927 186.993 81.0577 184.493 87.4588 182.662C95.735 180.302 104.879 179.142 112.876 182.028V152.335H44.2029ZM112.861 58.3548V0.00316732C105.344 -0.0782986 97.8473 0.801175 90.5533 2.62023C73.1679 6.9894 57.5689 16.466 44.2029 28.5691V58.3516H47.6489V59.7045H44.2029V105.798H112.861V59.7077H61.7973V58.3548H112.861ZM201.048 38.6445C196.747 38.4924 192.471 37.13 188.604 35.0262C181.208 31.0024 175.301 24.7892 168.7 19.5456C154.986 8.62427 137.977 2.03408 120.529 0.399212V58.3548H218.541L218.785 58.0982L201.048 38.6445ZM209.977 37.0603L219.444 47.4525V34.3355C216.273 34.7284 213.495 35.663 209.989 37.0476L209.977 37.0603ZM219.444 199.321V152.335H199.271C199.217 152.135 199.163 151.932 199.1 151.729C199.16 151.932 199.211 152.135 199.268 152.335H120.541V186.315C121.289 186.87 122.027 187.453 122.758 188.045C123.547 188.679 124.326 189.347 125.109 190.003L125.897 190.656C126.274 190.973 126.654 191.29 127.037 191.587C127.798 192.204 128.565 192.812 129.34 193.412C129.723 193.729 130.116 194.014 130.506 194.312C136.69 199.042 143.215 203.311 150.026 207.084C151.552 207.929 153.093 208.754 154.647 209.558C155.683 210.087 156.725 210.613 157.77 211.123C159.341 211.89 160.924 212.63 162.521 213.341C177.238 219.95 192.801 224.485 208.763 226.816C212.309 227.34 215.868 227.752 219.44 228.052V199.318H219.757L219.444 199.321ZM120.541 59.7077V105.798H219.456V59.7077H120.541ZM120.541 107.151V150.982H219.456V107.151H120.541ZM227.134 34.2785V48.9099L239.217 35.6472C235.214 35.0008 231.186 34.5393 227.134 34.2626V34.2785ZM227.134 107.167V150.982H323.341V107.151L227.134 107.167ZM322.989 202.8L323.328 152.335H227.134V228.556C233.331 228.816 239.537 228.742 245.726 228.334H245.834C248.79 228.148 251.732 227.878 254.661 227.523H254.727C270.352 225.704 285.63 221.626 300.083 215.417L322.989 202.8ZM341.892 114.368C341.531 113.516 341.154 112.67 340.77 111.834C340.055 110.249 339.298 108.71 338.519 107.17H331.012V150.982H349.991C349.981 138.574 346.842 125.901 341.901 114.352L341.892 114.368ZM331.012 152.35V195.757C336.358 190.631 340.875 184.766 344.128 178.062C348.039 169.989 349.829 161.247 349.975 152.344L331.012 152.35ZM331.012 94.3949V105.801H337.815C335.757 101.874 333.489 98.0617 331.022 94.379L331.012 94.3949ZM265.766 42.8774C265.265 42.6873 264.765 42.494 264.261 42.3071C258.95 40.345 253.522 38.7134 248.01 37.4215L229.519 57.7211L229.164 58.0982L229.402 58.358H295.212C286.046 52.0468 276.165 46.845 265.775 42.8615L265.766 42.8774ZM297.141 59.7235H228.483L227.134 60.9592V105.798H238.961H238.98H323.353V84.0787C315.721 74.8448 306.912 66.6513 297.15 59.7077L297.141 59.7235Z"
            fill="#0ABAB5" />
        <path opacity="0.1"
            d="M36.5285 82.957V105.798H4.48486C4.48486 105.665 4.50703 105.528 4.51654 105.395C4.54504 105.031 4.57355 104.667 4.60522 104.305C4.64006 103.881 4.67807 103.453 4.71924 103.038C4.76042 102.623 4.80476 102.116 4.85227 101.657C4.89978 101.197 4.94412 100.732 4.99797 100.272C5.05181 99.8127 5.09932 99.3533 5.15633 98.897C5.21334 98.4408 5.26402 97.9782 5.3242 97.522C5.37171 97.1418 5.42238 96.7647 5.47306 96.3845C5.54591 95.8491 5.62193 95.3105 5.70428 94.7782C5.70428 94.699 5.72645 94.6166 5.73912 94.5405C6.31721 90.644 7.1049 86.7814 8.09876 82.9697L36.5285 82.957Z"
            fill="#0ABAB5" />
        <path opacity="0.1"
            d="M4.38353 107.154H36.5285V150.982H6.73684C6.65766 151.432 6.58164 151.885 6.49929 152.338H36.5285V187.684C36.4747 187.668 36.4272 187.649 36.3765 187.63C35.5276 187.294 34.6851 186.939 33.8426 186.559L33.3042 186.315C32.4596 185.916 31.615 185.494 30.7704 185.048C30.4758 184.893 30.1812 184.731 29.8898 184.566C25.2009 181.939 20.9413 178.61 17.2586 174.694C17.1509 174.589 17.0496 174.478 16.9419 174.377C16.4288 173.819 15.9252 173.255 15.4374 172.679L14.899 172.045C14.3225 171.338 13.7651 170.613 13.2235 169.878C13.1443 169.77 13.0683 169.662 12.9859 169.561C10.7832 166.506 8.95427 163.198 7.53817 159.707C7.49383 159.603 7.45582 159.489 7.41464 159.391C6.97967 158.271 6.59431 157.141 6.25858 156C6.11288 155.522 5.97352 155.05 5.85316 154.552C5.80882 154.407 5.77081 154.264 5.73597 154.122C3.93694 147.097 3.72473 139.801 3.72473 132.555C3.72473 131.709 3.72473 130.86 3.72473 130.02C3.72473 127.089 3.75957 124.139 3.81025 121.193C3.81025 120.429 3.84192 119.669 3.85776 118.902C3.9021 116.957 3.96545 115.011 4.0478 113.066C4.0668 112.524 4.09214 111.986 4.12064 111.447C4.12064 111.136 4.13648 110.826 4.16815 110.516C4.24417 109.388 4.30752 108.269 4.38353 107.154Z"
            fill="#0ABAB5" />
        <path opacity="0.1" d="M68.3726 66.3073V105.798H44.2029V66.3073H47.6489V52.9369H61.7941V66.3073H68.3726Z"
            fill="#0ABAB5" />
        <path opacity="0.1" d="M68.3726 107.151H44.2061V150.979H68.3726V107.151Z" fill="#0ABAB5" />
        <path opacity="0.1"
            d="M44.2029 152.338H68.3726V188.774C65.5215 189.593 62.6162 190.211 59.6783 190.621L58.9562 190.71C58.6015 190.751 58.2499 190.786 57.9015 190.821C57.5531 190.855 57.192 190.881 56.8404 190.903H56.7296C56.5775 190.903 56.4128 190.922 56.264 190.925H56.1024C55.9124 190.925 55.7224 190.944 55.5323 190.951C55.2631 190.966 54.9939 190.97 54.7183 190.973C54.6011 190.973 54.4903 190.973 54.3731 190.973C54.1007 190.973 53.8315 190.973 53.5591 190.973H52.9605C52.7989 190.973 52.6438 190.973 52.4759 190.973L51.8646 190.951C51.5479 190.951 51.2058 190.916 50.8764 190.893L50.2683 190.849L49.5113 190.779C48.9792 190.732 48.4502 190.672 47.9276 190.599L47.2942 190.51L46.9774 190.466C46.4485 190.383 45.9259 190.295 45.3938 190.193C45.0042 190.127 44.6178 190.044 44.225 189.965L44.2029 152.338Z"
            fill="#0ABAB5" />
        <path opacity="0.1" d="M219.456 61.6435H199.528V105.795H219.456V61.6435Z" fill="#0ABAB5" />
        <path opacity="0.1" d="M219.46 107.151V150.982H120.541V132.076H173.23V143.229H199.528V107.151H219.46Z"
            fill="#0ABAB5" />
        <path opacity="0.1"
            d="M219.773 199.331H219.456V228.084C215.888 227.782 212.33 227.371 208.782 226.851C192.812 224.512 177.243 219.968 162.521 213.348C158.27 211.434 154.106 209.345 150.029 207.081C143.218 203.306 136.693 199.038 130.506 194.309C128.952 193.118 127.418 191.899 125.904 190.653C124.855 189.788 123.813 188.901 122.758 188.039C122.027 187.446 121.289 186.863 120.541 186.306V152.338H199.265C199.211 152.135 199.157 151.932 199.1 151.733C199.16 151.932 199.217 152.135 199.271 152.338H219.456V199.312C219.564 199.315 219.668 199.325 219.773 199.331Z"
            fill="#0ABAB5" />
        <path opacity="0.1"
            d="M271.432 58.3548H258.446V54.3183H264.267V42.2944C264.772 42.4782 265.275 42.6672 265.775 42.8615V54.3183H271.432V58.3548Z"
            fill="#0ABAB5" />
        <path opacity="0.1"
            d="M302.718 105.798H238.967C238.967 105.798 238.967 105.798 238.989 105.814L238.961 105.798H227.134V61.6467H230.485V94.2808H245.799V74.9538H258.449V59.7109H271.435V74.9665H284.085V94.2935H302.718V105.798Z"
            fill="#0ABAB5" />
        <path opacity="0.1"
            d="M227.134 107.151V150.982H302.718V107.151H227.134ZM323.236 202.575L323.341 167.882H302.718V152.357H227.134V228.556C233.331 228.816 239.537 228.742 245.726 228.334H245.834C248.79 228.148 251.732 227.878 254.661 227.523H254.727C270.352 225.704 285.63 221.626 300.083 215.417"
            fill="#0ABAB5" />
        <path opacity="0.1"
            d="M332.355 152.338H349.987C349.832 161.238 348.046 169.979 344.137 178.052C340.884 184.76 336.365 190.624 331.025 195.747V167.866H332.355V152.338Z"
            fill="#0ABAB5" />
        <path opacity="0.1"
            d="M349.997 150.982H332.355V114.352H341.901C346.842 125.901 349.981 138.574 349.997 150.982Z"
            fill="#0ABAB5" />
        <path opacity="0.1" d="M219.459 73.9178H208.782V87.7603H219.459V73.9178Z" fill="#0ABAB5" />
        <path opacity="0.1" d="M219.459 102.611H208.782V105.798H219.459V102.611Z" fill="#0ABAB5" />
        <path opacity="0.1" d="M219.459 107.151H208.782V116.45H219.459V107.151Z" fill="#0ABAB5" />
        <path opacity="0.1" d="M219.459 131.303H208.782V145.146H219.459V131.303Z" fill="#0ABAB5" />
        <path opacity="0.1" d="M219.459 159.996H208.782V173.838H219.459V159.996Z" fill="#0ABAB5" />
        <path opacity="0.1"
            d="M219.456 199.312C219.564 199.312 219.669 199.312 219.773 199.331H219.456V202.547H208.782V188.688H219.456V199.312Z"
            fill="#0ABAB5" />
        <path opacity="0.1" d="M219.456 217.375V228.068C215.888 227.766 212.33 227.355 208.782 226.835V217.375H219.456Z"
            fill="#0ABAB5" />
        <path opacity="0.1" d="M166.299 149.965H120.541V150.982H166.299V149.965Z" fill="#0ABAB5" />
        <path opacity="0.1" d="M166.299 152.335H120.541V156.232H166.299V152.335Z" fill="#0ABAB5" />
        <path opacity="0.1" d="M166.299 169.007H120.541V175.274H166.299V169.007Z" fill="#0ABAB5" />
        <path opacity="0.1"
            d="M166.296 188.048V194.315H130.506C128.952 193.128 127.416 191.91 125.9 190.659C124.852 189.794 123.813 188.907 122.755 188.048H166.296Z"
            fill="#0ABAB5" />
        <path opacity="0.1"
            d="M166.296 207.087V213.348H162.518C158.271 211.432 154.109 209.342 150.029 207.077L166.296 207.087Z"
            fill="#0ABAB5" />
        <path opacity="0.1" d="M254.737 111.399H245.729V120.41H254.737V111.399Z" fill="#0ABAB5" />
        <path opacity="0.1" d="M59.7005 69.4155H50.6927V78.4263H59.7005V69.4155Z" fill="#0ABAB5" />
        <path opacity="0.1" d="M59.7005 90.3458H50.6927V99.3566H59.7005V90.3458Z" fill="#0ABAB5" />
        <path opacity="0.1" d="M59.7005 111.276H50.6927V120.287H59.7005V111.276Z" fill="#0ABAB5" />
        <path opacity="0.1" d="M59.7005 132.203H50.6927V141.214H59.7005V132.203Z" fill="#0ABAB5" />
        <path opacity="0.1" d="M59.7005 153.133H50.6927V162.144H59.7005V153.133Z" fill="#0ABAB5" />
        <path opacity="0.1" d="M59.7005 174.063H50.6927V183.074H59.7005V174.063Z" fill="#0ABAB5" />
        <path opacity="0.1" d="M289.124 111.399H280.117V120.41H289.124V111.399Z" fill="#0ABAB5" />
        <path opacity="0.1" d="M254.737 133.625H245.729V142.636H254.737V133.625Z" fill="#0ABAB5" />
        <path opacity="0.1" d="M289.124 133.625H280.117V142.636H289.124V133.625Z" fill="#0ABAB5" />
        <path opacity="0.1" d="M254.737 155.848H245.729V164.859H254.737V155.848Z" fill="#0ABAB5" />
        <path opacity="0.1" d="M289.124 155.848H280.117V164.859H289.124V155.848Z" fill="#0ABAB5" />
        <path opacity="0.1" d="M254.737 178.074H245.729V187.085H254.737V178.074Z" fill="#0ABAB5" />
        <path opacity="0.1" d="M289.124 178.074H280.117V187.085H289.124V178.074Z" fill="#0ABAB5" />
        <path opacity="0.1" d="M254.737 200.3H245.729V209.311H254.737V200.3Z" fill="#0ABAB5" />
        <path opacity="0.1" d="M289.124 200.3H280.117V209.311H289.124V200.3Z" fill="#0ABAB5" />
        <path opacity="0.1" d="M245.729 228.334V222.523H254.734V227.507L245.729 228.334Z" fill="#0ABAB5" />
        <path opacity="0.1"
            d="M5.70117 94.5342V99.6891H36.5286V94.5342H5.70117ZM8.77346 99.3659H6.25862V94.851H8.79246L8.77346 99.3659ZM11.8426 99.3659H9.30873V94.851H11.8426V99.3659ZM14.9054 99.3659H12.3715V94.851H14.9054V99.3659ZM17.9745 99.3659H15.4438V94.851H17.9776L17.9745 99.3659ZM21.0404 99.3659H18.5066V94.851H21.0404V99.3659ZM24.1096 99.3659H21.5757V94.851H24.1096V99.3659ZM27.1787 99.3659H24.6448V94.851H27.1787V99.3659ZM30.2446 99.3659H27.7108V94.851H30.2446V99.3659ZM33.3106 99.3659H30.7767V94.851H33.3106V99.3659ZM36.3765 99.3659H33.8427V94.851H36.3765V99.3659Z"
            fill="#0ABAB5" />
        <path opacity="0.1"
            d="M5.70117 109.533V114.688H36.5286V109.533H5.70117ZM8.77346 114.362H6.25862V109.86H8.79246L8.77346 114.362ZM11.8426 114.362H9.30873V109.86H11.8426V114.362ZM14.9054 114.362H12.3715V109.86H14.9054V114.362ZM17.9745 114.362H15.4438V109.86H17.9776L17.9745 114.362ZM21.0404 114.362H18.5066V109.86H21.0404V114.362ZM24.1096 114.362H21.5757V109.86H24.1096V114.362ZM27.1787 114.362H24.6448V109.86H27.1787V114.362ZM30.2446 114.362H27.7108V109.86H30.2446V114.362ZM33.3106 114.362H30.7767V109.86H33.3106V114.362ZM36.3765 114.362H33.8427V109.86H36.3765V114.362Z"
            fill="#0ABAB5" />
        <path opacity="0.1"
            d="M5.70117 124.539V129.703H36.5286V124.539H5.70117ZM8.77346 129.367H6.25862V124.862H8.79246L8.77346 129.367ZM11.8426 129.367H9.30873V124.862H11.8426V129.367ZM14.9054 129.367H12.3715V124.862H14.9054V129.367ZM17.9745 129.367H15.4438V124.862H17.9776L17.9745 129.367ZM21.0404 129.367H18.5066V124.862H21.0404V129.367ZM24.1096 129.367H21.5757V124.862H24.1096V129.367ZM27.1787 129.367H24.6448V124.862H27.1787V129.367ZM30.2446 129.367H27.7108V124.862H30.2446V129.367ZM33.3106 129.367H30.7767V124.862H33.3106V129.367ZM36.3765 129.367H33.8427V124.862H36.3765V129.367Z"
            fill="#0ABAB5" />
        <path opacity="0.1"
            d="M5.70117 139.544V144.693H36.5286V139.544H5.70117ZM8.77346 144.373H6.25862V139.864H8.79246L8.77346 144.373ZM11.8426 144.373H9.30873V139.864H11.8426V144.373ZM14.9054 144.373H12.3715V139.864H14.9054V144.373ZM17.9745 144.373H15.4438V139.864H17.9776L17.9745 144.373ZM21.0404 144.373H18.5066V139.864H21.0404V144.373ZM24.1096 144.373H21.5757V139.864H24.1096V144.373ZM27.1787 144.373H24.6448V139.864H27.1787V144.373ZM30.2446 144.373H27.7108V139.864H30.2446V144.373ZM33.3106 144.373H30.7767V139.864H33.3106V144.373ZM36.3765 144.373H33.8427V139.864H36.3765V144.373Z"
            fill="#0ABAB5" />
        <path opacity="0.1"
            d="M5.83417 154.546C5.95769 155.031 6.09705 155.516 6.24275 155.994V154.869H8.77659V159.375H7.42099C7.46216 159.479 7.50334 159.593 7.54451 159.692H36.5285V154.546H5.83417ZM11.852 159.375H9.3182V154.869H11.852V159.375ZM14.9148 159.375H12.381V154.869H14.9148V159.375ZM17.984 159.375H15.4438V154.869H17.9776L17.984 159.375ZM21.0499 159.375H18.5161V154.869H21.0499V159.375ZM24.119 159.375H21.5852V154.869H24.119V159.375ZM27.1881 159.375H24.6543V154.869H27.1881V159.375ZM30.2541 159.375H27.7203V154.869H30.2541V159.375ZM33.32 159.375H30.7862V154.869H33.32V159.375ZM36.386 159.375H33.8522V154.869H36.386V159.375Z"
            fill="#0ABAB5" />
        <path opacity="0.1"
            d="M12.9922 169.551C13.0714 169.653 13.1474 169.767 13.2298 169.868H14.9053V172.032C15.0858 172.248 15.2632 172.463 15.4469 172.666V169.856H17.9808V174.377H16.9545C17.0559 174.481 17.1541 174.592 17.2713 174.694H36.538V169.551H12.9922ZM21.0404 174.377H18.5065V169.875H21.0404V174.377ZM24.1095 174.377H21.5756V169.875H24.1095V174.377ZM27.1786 174.377H24.6448V169.875H27.1786V174.377ZM30.2446 174.377H27.7107V169.875H30.2446V174.377ZM33.3105 174.377H30.7767V169.875H33.3105V174.377ZM36.3765 174.377H33.8426V169.875H36.3765V174.377Z"
            fill="#0ABAB5" />
        <path opacity="0.1"
            d="M29.9025 184.554C30.1908 184.718 30.4853 184.87 30.783 185.035V184.877H33.3169V186.303L33.8553 186.553V184.877H36.3892V187.617C36.4378 187.642 36.4887 187.661 36.5412 187.674V184.554H29.9025Z"
            fill="#0ABAB5" />
        <path opacity="0.1"
            d="M238.967 105.798H238.986H238.967ZM219.456 199.309H219.773H219.456ZM199.1 151.73C199.16 151.932 199.211 152.135 199.268 152.335C199.217 152.135 199.163 151.932 199.1 151.73ZM238.967 105.788H238.986H238.967ZM47.6616 58.3454V59.6983H61.81V58.3454H47.6616ZM219.456 199.309H219.773H219.456ZM199.1 151.73C199.16 151.932 199.211 152.135 199.268 152.335C199.217 152.135 199.163 151.932 199.1 151.73ZM238.967 105.788H238.986H238.967ZM219.456 199.299H219.773H219.456ZM199.1 151.73C199.16 151.932 199.211 152.135 199.268 152.335C199.217 152.135 199.163 151.932 199.1 151.73Z"
            fill="#0ABAB5" />
        <path
            d="M146.203 120.293C146.203 120.293 144.955 120.119 144.955 118.3C144.955 116.482 144.062 113.085 144.062 113.085C144.062 113.069 143.289 107.17 142.222 106.232C141.154 105.294 139.783 99.7875 139.783 99.7875C139.783 99.7875 139.548 96.7997 139.07 96.1565C138.592 95.5133 137.946 93.9387 136.992 91.6923C136.039 89.4459 132.064 87.8903 132.064 87.8903C132.064 87.8903 124.877 83.7207 122.841 82.3615C122.656 82.2498 122.483 82.1192 122.325 81.9718C121.97 81.506 120.424 81.4965 120.424 81.4965C120.263 80.4763 120.107 79.304 120.057 78.2426C120.057 78.1286 120.057 78.0145 120.041 77.9004C122.312 76.5576 124.022 74.4404 124.858 71.9376C124.896 71.8172 124.928 71.6905 124.963 71.5701C125.099 71.5252 125.224 71.4525 125.331 71.3565C125.437 71.2604 125.522 71.1433 125.581 71.0124C125.764 70.6037 125.767 70.1253 125.995 69.7451C126.262 69.2952 126.768 69.0544 127.167 68.7154C128.175 67.8599 128.434 66.4183 128.387 65.1066C128.355 64.0452 128.184 62.9743 128.251 61.9192L128.27 61.6531C128.289 61.4947 128.311 61.3363 128.339 61.1842C128.494 60.3984 128.833 59.657 129.023 58.8776C129.213 58.0982 129.232 57.2206 128.789 56.5489C128.14 55.5635 126.787 55.3671 125.6 55.2657C124.253 55.1516 123.05 55.3005 122.188 54.1821C121.785 53.5976 121.332 53.0495 120.833 52.5441C120.655 52.3793 118.932 51.3274 118.932 51.2577C117.251 50.4786 115.345 50.3324 113.564 50.8458C112.671 51.1056 111.828 51.5302 110.922 51.7425C108.968 52.2051 106.719 51.7045 105.06 52.8229C104.135 53.4566 103.58 54.4641 103.061 55.4463C102.639 56.2553 102.21 57.0632 101.775 57.8701C101.075 59.1976 100.362 60.5473 100.068 62.0175C100.006 62.3374 99.9678 62.6614 99.9539 62.987V63.0028C99.9539 63.1201 99.9539 63.2373 99.9539 63.3545V63.5034C99.9539 63.6143 99.9539 63.722 99.9729 63.8203C99.9919 63.9185 99.9887 63.9502 99.9982 64.0167C100.008 64.0832 100.024 64.2321 100.043 64.3335C100.062 64.4349 100.1 64.6124 100.138 64.7518C100.153 64.812 100.176 64.869 100.195 64.926C100.226 65.0337 100.264 65.1383 100.305 65.2429C100.328 65.2967 100.35 65.3537 100.375 65.4076C100.423 65.5185 100.48 65.6262 100.537 65.7244C100.562 65.7688 100.581 65.81 100.606 65.8512C100.695 65.9985 100.792 66.1403 100.898 66.2757C101.576 67.1217 102.573 67.6603 103.311 68.4524C103.311 68.4841 103.311 68.5158 103.311 68.5443C103.311 68.633 103.311 68.7185 103.311 68.8073C103.35 70.5738 103.82 72.304 104.68 73.8474C105.54 75.3907 106.764 76.7005 108.246 77.6628C108.246 77.7832 108.262 77.9068 108.268 78.0272C108.33 78.9677 108.318 79.9115 108.233 80.8502C108.104 80.6982 107.943 80.5772 107.761 80.496C107.579 80.4149 107.381 80.3756 107.182 80.3813C107.046 80.3746 106.909 80.3863 106.776 80.4161L106.748 80.3939V80.4225C106.051 80.5935 105.193 81.3191 104.372 83.3817C104.372 83.3817 101.876 86.1952 99.976 86.078C98.0757 85.9607 93.2645 89.0055 93.2645 89.0055C93.2645 89.0055 88.5706 92.0535 87.5634 95.1585C87.0004 96.9192 86.3254 98.6421 85.5426 100.317L79.7401 112.277L78.6696 121.766C78.6696 121.766 79.2618 125.987 79.1447 126.63C79.0275 127.273 81.5803 133.074 81.5803 133.074C81.5803 133.074 90.0149 147.899 93.4609 148.659L93.7079 148.485C93.8554 148.562 94.0118 148.621 94.1735 148.659L94.883 148.159C94.9256 148.717 94.9076 149.278 94.8292 149.832C94.3541 151.295 95.0065 160.848 95.8364 162.721C96.6662 164.593 96.3716 189.145 96.3716 189.145L96.2544 191.312C96.2544 191.312 96.2544 191.381 96.283 191.502L96.2544 192.015L96.34 192.06C96.4288 192.747 96.3998 193.444 96.2544 194.122C95.9567 195.073 95.8364 197.759 95.8364 197.759C95.8364 197.759 93.464 212.929 94.5884 215.977C95.7128 219.025 96.6694 222.365 96.6694 222.365C96.6694 222.365 97.8571 226.167 96.7264 226.816C95.5956 227.466 92.3808 228.556 93.0428 230.14C93.6446 231.604 95.9282 235.526 96.2671 236.1L96.2386 236.401L95.773 241.448C95.8484 242.114 96.0291 242.765 96.3083 243.374C96.8182 244.474 97.8096 245.614 99.6941 245.491C100.011 245.469 100.378 245.431 100.733 245.383C104.182 244.92 108.43 243.381 108.43 243.381C108.209 243.24 108.007 243.073 107.828 242.883C107.658 242.719 107.524 242.522 107.433 242.304C107.342 242.086 107.296 241.852 107.299 241.616C107.35 240.697 105.63 236.318 105.202 235.241C105.136 235.086 105.101 234.997 105.101 234.997C105.101 234.997 109.022 230.897 108.369 227.263C108.369 227.263 104.03 224.728 105.459 223.338C106.887 221.947 109.44 217.951 109.44 217.951C109.44 217.951 109.557 203.013 109.44 200.782C109.318 199.234 109.391 197.676 109.658 196.147C109.706 195.915 109.763 195.69 109.823 195.469C111.799 195.764 113.793 195.915 115.79 195.922C116.519 195.922 117.26 195.922 118.008 195.877C118.008 196.089 118.017 196.317 118.036 196.562C118.201 200.262 118.508 206.751 118.758 209.162C119.113 212.619 121.073 221.934 121.073 221.934C121.073 221.934 117.333 224.336 121.726 230.254C121.726 230.254 121.726 232.399 121.435 232.71C121.123 233.725 120.873 234.757 120.684 235.802C120.5 236.917 120.424 238.045 120.722 238.631C121.435 240.032 125.71 239.918 125.71 239.918L125.815 239.899C126.622 239.815 127.438 239.893 128.215 240.127C128.992 240.362 129.715 240.748 130.341 241.264C131.966 242.569 138.133 241.996 141.471 241.581C142.779 241.416 143.653 241.264 143.653 241.264C143.696 241.116 143.711 240.961 143.698 240.808C143.663 239.987 143.02 238.188 138.662 236.581C138.662 236.581 134.563 233.825 134.62 231.423H134.535H134.059C134.405 231.404 134.626 231.423 134.626 231.423C134.626 231.423 133.021 225.562 133.676 225.086C134.332 224.611 132.368 218.116 132.368 218.116C132.368 218.116 131.244 207.217 131.184 206.453C131.186 205.798 131.285 205.147 131.478 204.521L131.184 198.545C131.184 198.545 131.126 196.559 131.184 195.912C131.174 195.351 131.128 194.791 131.047 194.236C131.019 194.014 130.99 193.783 130.959 193.555C132.495 193.165 133.492 192.804 133.492 192.804L133.315 172.004C134.62 169.469 134.861 163.909 134.854 159.964C134.854 157.429 134.74 155.554 134.74 155.554L136.524 152.642C136.524 152.642 136.935 149.157 136.283 148.393C135.995 148.048 136.125 147.69 136.362 147.395C136.485 147.297 136.616 147.208 136.752 147.129C136.752 147.129 136.733 147.101 136.71 147.059C136.835 146.955 136.967 146.861 137.106 146.777C137.106 146.777 136.473 145.795 137.04 145.38C137.572 145.741 138.047 146.014 138.408 146.236C138.383 146.467 138.357 146.6 138.357 146.6L138.509 146.283C138.858 146.48 139.07 146.6 139.07 146.6C139.07 146.6 141.864 141.033 141.803 140.213C141.743 139.392 143.704 135.935 143.704 135.935C143.704 135.935 143.941 134.12 145.012 133.359C146.083 132.599 145.842 127.089 145.842 127.089C145.842 127.089 146.14 124.219 146.852 123.046C147.565 121.874 146.203 120.293 146.203 120.293ZM92.7514 117.85L92.8052 119.178C92.4885 118.668 92.2605 118.3 92.2605 118.3L92.7514 117.85Z"
            fill="url(#paint0_linear)" />
        <path
            d="M139.222 144.195L138.538 147.11C138.538 147.11 133.059 144.312 132.07 140.757C131.082 137.203 133.724 135.853 133.724 135.853L138.829 138.017L139.222 144.195Z"
            fill="white" />
        <path opacity="0.1"
            d="M139.222 144.195L138.538 147.11C138.538 147.11 133.059 144.312 132.07 140.757C131.082 137.203 133.724 135.853 133.724 135.853L138.829 138.017L139.222 144.195Z"
            fill="black" />
        <path
            d="M108.471 243.399C108.471 243.399 103.403 245.262 99.919 245.497C98.0693 245.621 97.0969 244.486 96.5965 243.393C96.3231 242.786 96.1467 242.139 96.0739 241.476L96.5268 236.454L96.7675 233.78L104.169 231.857L105.218 235.064L105.316 235.308C105.737 236.378 107.425 240.735 107.375 241.644C107.373 241.877 107.418 242.108 107.507 242.323C107.596 242.538 107.728 242.733 107.894 242.896C108.064 243.087 108.258 243.257 108.471 243.399Z"
            fill="white" />
        <path
            d="M143.086 240.846C143.099 240.998 143.084 241.152 143.042 241.299C143.042 241.299 132.203 243.108 129.986 241.299C129.361 240.77 128.633 240.378 127.847 240.148C127.062 239.918 126.237 239.854 125.425 239.962C125.425 239.962 121.232 240.076 120.532 238.695C120.24 238.115 120.317 236.99 120.497 235.881C120.681 234.842 120.927 233.815 121.232 232.805L121.4 232.671L122.397 231.87L134.078 231.525H134.167C134.11 233.913 138.133 236.654 138.133 236.654C142.405 238.238 143.036 240.028 143.086 240.846Z"
            fill="white" />
        <path opacity="0.1"
            d="M143.086 240.846C143.097 240.998 143.081 241.152 143.039 241.299C143.039 241.299 132.203 243.108 129.986 241.299C129.362 240.771 128.633 240.379 127.849 240.149C127.064 239.919 126.239 239.855 125.429 239.962C125.429 239.962 121.232 240.076 120.535 238.695C120.244 238.112 120.316 236.99 120.497 235.881C122.112 236.043 124.662 236.445 125.663 237.405C127.177 238.866 129.742 240.323 131.317 240.437C132.549 240.516 139.919 240.751 143.086 240.846Z"
            fill="black" />
        <path opacity="0.1"
            d="M108.471 243.4C108.471 243.4 103.403 245.263 99.919 245.497C98.0693 245.621 97.0969 244.486 96.5997 243.39C97.8888 243.824 99.6783 244.28 100.619 243.862C101.734 243.368 105.687 243.048 107.904 242.912C108.073 243.096 108.263 243.26 108.471 243.4Z"
            fill="black" />
        <path
            d="M115.99 93.2668C111.809 91.6415 106.431 86.2711 107.774 83.7618C108.072 83.1285 108.249 82.4451 108.297 81.7467C108.383 80.7986 108.396 79.8452 108.335 78.8952C108.24 77.3392 108.053 75.7903 107.774 74.2567C107.774 74.2567 120.826 74.5514 120.066 76.4746C119.845 77.0385 119.81 78.0175 119.87 79.1138C119.93 80.21 120.088 81.4489 120.253 82.4976C120.481 83.936 120.709 85.0323 120.709 85.0323C120.709 85.0323 119.911 86.1507 119.442 86.2109C118.974 86.2711 121.989 95.5829 115.99 93.2668Z"
            fill="#CF6F80" />
        <path opacity="0.1"
            d="M105.307 235.308L105.208 235.415C101.306 230.694 96.587 236.578 96.587 236.578L96.5173 236.454L96.7581 233.78L104.16 231.857L105.208 235.064L105.307 235.308Z"
            fill="black" />
        <path opacity="0.1"
            d="M134.17 231.857C134.17 231.857 131.32 231.797 129.799 233.14C128.279 234.484 120.931 233.432 121.248 233.14C121.342 232.996 121.398 232.831 121.412 232.659L122.41 231.857L134.091 231.512C134.135 231.724 134.17 231.857 134.17 231.857Z"
            fill="black" />
        <path
            d="M110.162 194.784C109.95 195.309 109.789 195.854 109.681 196.41C109.417 197.932 109.343 199.482 109.462 201.023C109.579 203.241 109.462 218.103 109.462 218.103C109.462 218.103 106.957 222.067 105.56 223.464C104.163 224.861 108.411 227.371 108.411 227.371C109.044 230.983 105.205 235.064 105.205 235.064C101.303 230.343 96.5839 236.229 96.5839 236.229C96.5839 236.229 94.0183 231.794 93.3785 230.21C92.7387 228.625 95.8839 227.529 96.9893 226.886C98.0947 226.243 96.9354 222.45 96.9354 222.45C96.9354 222.45 96.0011 219.127 94.8925 216.095C93.784 213.062 96.1151 197.968 96.1151 197.968C96.1151 197.968 96.2355 195.288 96.5237 194.353C96.6691 193.679 96.698 192.984 96.6092 192.3C96.5902 192.069 96.568 191.876 96.5522 191.746C96.5363 191.616 96.5237 191.556 96.5237 191.556L96.568 191.48L98.1517 188.527C98.1517 188.527 110.922 192.924 110.162 194.784Z"
            fill="#0ABAB5" />
        <path
            d="M134.17 231.509C134.17 231.509 131.32 231.448 129.799 232.776C128.279 234.104 120.931 233.067 121.248 232.776C121.564 232.484 121.539 230.327 121.539 230.327C117.228 224.44 120.906 222.051 120.906 222.051C120.906 222.051 118.98 212.784 118.632 209.346C118.388 206.944 118.087 200.49 117.925 196.806C117.856 195.221 117.814 194.132 117.814 194.132L121.336 193.422L121.789 193.33L130.284 191.625C130.284 191.625 130.518 193.21 130.677 194.505C130.756 195.059 130.8 195.616 130.81 196.175C130.753 196.809 130.81 198.792 130.81 198.792L131.098 204.739C130.91 205.363 130.813 206.011 130.81 206.662C130.867 207.42 131.972 218.262 131.972 218.262C131.972 218.262 133.895 224.732 133.239 225.197C132.583 225.663 134.17 231.509 134.17 231.509Z"
            fill="#0ABAB5" />
        <path opacity="0.1"
            d="M120.066 76.4746C119.845 77.0385 119.81 78.0175 119.87 79.1138C118.122 80.1669 116.112 80.7054 114.071 80.6673C112.031 80.6292 110.042 80.016 108.335 78.8983C108.241 77.3413 108.053 75.7913 107.774 74.2567C107.774 74.2567 120.826 74.545 120.066 76.4746Z"
            fill="black" />
        <path
            d="M125.112 69.4725C125.114 70.6143 124.935 71.7491 124.58 72.8342C123.786 75.2655 122.159 77.3379 119.986 78.6851C117.812 80.0323 115.233 80.5676 112.703 80.1964C110.174 79.8252 107.857 78.5714 106.162 76.6566C104.467 74.7418 103.503 72.2892 103.441 69.7324C103.441 69.6436 103.441 69.5613 103.441 69.4725C103.416 68.0334 103.679 66.6037 104.212 65.2669C104.746 63.9301 105.54 62.713 106.549 61.6865C107.558 60.66 108.76 59.8447 110.087 59.2882C111.415 58.7317 112.839 58.4451 114.278 58.4451C115.717 58.4451 117.141 58.7317 118.468 59.2882C119.795 59.8447 120.998 60.66 122.007 61.6865C123.016 62.713 123.81 63.9301 124.344 65.2669C124.877 66.6037 125.14 68.0334 125.115 69.4725H125.112Z"
            fill="#CF6F80" />
        <path opacity="0.1"
            d="M115.99 93.267C111.809 91.6416 106.431 86.2712 107.774 83.7619C108.072 83.1286 108.249 82.4452 108.297 81.7468L114.02 86.4518L117.561 89.3572L120.253 82.5009C120.481 83.9393 120.709 85.0355 120.709 85.0355C120.709 85.0355 119.911 86.154 119.442 86.2142C118.974 86.2744 121.989 95.583 115.99 93.267Z"
            fill="black" />
        <path
            d="M130.791 114.061L126.011 194.379L119.778 194.787L103.637 148.216L106.285 92.9248L106.843 81.2431L114.02 87.1394L117.564 90.0448L120.335 82.9889L125.489 87.4816L130.791 114.061Z"
            fill="#0ABAB5" />
        <path opacity="0.1"
            d="M110.162 194.784C109.95 195.309 109.789 195.854 109.681 196.41C105.145 195.709 100.74 194.333 96.6124 192.326L96.5269 192.281L96.5554 191.771L96.5712 191.505L98.1549 188.552C98.1549 188.552 110.922 192.925 110.162 194.784Z"
            fill="black" />
        <path opacity="0.1"
            d="M121.409 196.422C120.25 196.62 119.08 196.753 117.906 196.822C117.836 195.237 117.795 194.147 117.795 194.147L121.317 193.438L121.409 196.422Z"
            fill="black" />
        <path opacity="0.1"
            d="M130.658 194.521C128.406 195.108 124.928 195.767 121.815 195.355L121.77 193.346L130.265 191.641C130.265 191.641 130.499 193.21 130.658 194.521Z"
            fill="black" />
        <path opacity="0.1"
            d="M121.758 195.722C108.772 197.94 96.8784 191.581 96.8784 191.581L96.9924 189.427C96.9924 189.427 97.287 165.002 96.4698 163.129C95.6527 161.257 95.016 151.761 95.4785 150.304C95.9409 148.846 93.7903 126.991 93.7903 126.991L93.4419 118.119L80.6903 112.952L86.3915 101.064C87.1615 99.3975 87.8238 97.6831 88.3742 95.9315C89.3656 92.8455 93.9677 89.8134 93.9677 89.8134C93.9677 89.8134 98.6869 86.7844 100.552 86.8985C102.418 87.0126 104.863 84.2181 104.863 84.2181C106.669 79.6145 108.303 81.6992 108.303 81.6992C108.303 81.9178 108.303 81.6992 108.214 82.3804C107.581 87.434 118.457 103.402 118.612 103.684L119.648 128.924L120.697 160.864L121.758 195.722Z"
            fill="black" />
        <path
            d="M121.409 195.722C108.423 197.94 96.5268 191.581 96.5268 191.581L96.644 189.427C96.644 189.427 96.9386 165.002 96.1182 163.129C95.2979 161.257 94.6645 151.761 95.1301 150.304C95.5956 148.846 93.4419 126.991 93.4419 126.991L93.0903 118.12L80.3324 112.933L86.0335 101.045C86.8019 99.3779 87.4641 97.6635 88.0163 95.9125C89.0045 92.8266 93.6097 89.7944 93.6097 89.7944C93.6097 89.7944 98.329 86.7655 100.191 86.8796C102.054 86.9936 104.502 84.1991 104.502 84.1991C106.311 79.5955 108.303 81.6803 108.303 81.6803C108.303 81.8989 108.113 81.9971 108.214 82.3615C109.608 87.2629 118.109 103.384 118.264 103.666L119.312 128.905L120.361 160.845L121.409 195.722Z"
            fill="white" />
        <path opacity="0.1"
            d="M117.909 104.385C116.513 103.802 109.114 95.3518 109.114 95.3518V93.4286C108.845 92.7949 107.245 93.1815 105.946 93.625L106.504 81.9433L107.137 82.4692C108.525 87.3675 117.748 104.103 117.909 104.385Z"
            fill="black" />
        <path
            d="M118.261 103.685C116.861 103.102 109.462 94.6515 109.462 94.6515V92.7283C109.193 92.0947 107.593 92.4812 106.295 92.9248L106.855 81.243L107.489 81.769C108.879 86.6673 118.106 103.406 118.261 103.685Z"
            fill="white" />
        <path opacity="0.1"
            d="M96.8784 145.827C97.0526 145.827 105.908 144.895 105.908 144.895C105.908 144.895 111.271 155.443 110.919 158.009C110.568 160.575 109.931 162.847 107.774 162.445C105.617 162.042 96.1658 162.762 96.1658 162.762L96.8784 145.827Z"
            fill="black" />
        <path
            d="M96.5269 145.127C96.7011 145.127 105.557 144.195 105.557 144.195C105.557 144.195 110.916 154.746 110.568 157.309C110.219 159.872 109.576 162.147 107.422 161.745C105.269 161.342 95.8142 162.062 95.8142 162.062L96.5269 145.127Z"
            fill="white" />
        <path
            d="M103.2 140.174C103.2 140.174 111.328 144.544 111.502 145.878C111.676 147.211 107.365 145.295 106.434 145.063C105.821 144.916 105.197 144.818 104.569 144.772L98.3575 144.94L103.2 140.174Z"
            fill="#CF6F80" />
        <path opacity="0.1"
            d="M115.641 104.93C116.114 104.93 116.497 104.547 116.497 104.074C116.497 103.602 116.114 103.219 115.641 103.219C115.169 103.219 114.786 103.602 114.786 104.074C114.786 104.547 115.169 104.93 115.641 104.93Z"
            fill="black" />
        <path
            d="M115.641 104.581C116.114 104.581 116.497 104.198 116.497 103.726C116.497 103.253 116.114 102.87 115.641 102.87C115.169 102.87 114.786 103.253 114.786 103.726C114.786 104.198 115.169 104.581 115.641 104.581Z"
            fill="#3F3D56" />
        <path opacity="0.1"
            d="M117.216 141.961C117.688 141.961 118.071 141.578 118.071 141.106C118.071 140.634 117.688 140.251 117.216 140.251C116.743 140.251 116.36 140.634 116.36 141.106C116.36 141.578 116.743 141.961 117.216 141.961Z"
            fill="black" />
        <path
            d="M117.216 141.61C117.688 141.61 118.071 141.227 118.071 140.754C118.071 140.282 117.688 139.899 117.216 139.899C116.743 139.899 116.36 140.282 116.36 140.754C116.36 141.227 116.743 141.61 117.216 141.61Z"
            fill="#3F3D56" />
        <path opacity="0.1"
            d="M116.494 123.446C116.966 123.446 117.349 123.063 117.349 122.59C117.349 122.118 116.966 121.735 116.494 121.735C116.021 121.735 115.638 122.118 115.638 122.59C115.638 123.063 116.021 123.446 116.494 123.446Z"
            fill="black" />
        <path
            d="M116.494 123.097C116.966 123.097 117.349 122.714 117.349 122.241C117.349 121.769 116.966 121.386 116.494 121.386C116.021 121.386 115.638 121.769 115.638 122.241C115.638 122.714 116.021 123.097 116.494 123.097Z"
            fill="#3F3D56" />
        <path
            d="M136.207 144.594C136.207 144.594 136.79 145.469 136.207 145.878C135.624 146.286 136.264 147.275 136.264 147.275C136.264 147.275 134.81 148.127 135.45 148.894C136.09 149.661 135.684 153.124 135.684 153.124L133.936 156.019C133.936 156.019 134.04 157.886 134.047 160.408C134.047 164.343 133.816 169.875 132.536 172.397L132.713 193.089C132.713 193.089 126.591 195.326 121.466 194.645L120.706 161.44C120.706 161.44 121.815 142.611 122.223 138.999C122.462 137.124 122.56 135.233 122.515 133.343C122.515 133.343 122.34 127.691 121.754 125.068C121.754 125.068 121.121 113.703 121.058 110.557C121.029 109.052 121.108 104.66 121.197 100.484C121.295 95.9189 121.406 91.6131 121.406 91.6131L120.25 82.4629C120.25 82.4629 121.406 82.3456 121.754 82.8114C121.91 82.9572 122.08 83.0877 122.261 83.2011C124.257 84.5508 131.307 88.7013 131.307 88.7013C131.307 88.7013 135.209 90.2538 136.143 92.478C137.078 94.7022 137.727 96.2801 138.18 96.9137C138.633 97.5474 138.88 100.526 138.88 100.526C138.88 100.526 140.223 106.007 141.271 106.935C142.32 107.864 143.086 113.769 143.086 113.769L133.822 121.057C133.822 121.057 133.008 133.179 132.834 133.648C132.659 134.117 136.207 144.594 136.207 144.594Z"
            fill="white" />
        <path
            d="M136.558 144.594C136.558 144.594 137.138 145.469 136.558 145.878C135.979 146.286 136.612 147.275 136.612 147.275C136.612 147.275 135.168 148.137 135.801 148.903C136.435 149.67 136.036 153.133 136.036 153.133L134.287 156.029C134.287 156.029 134.392 157.895 134.401 160.417C134.401 164.352 134.17 169.884 132.891 172.406L133.065 193.099C133.065 193.099 126.933 195.336 121.815 194.654L121.058 161.45C121.058 161.45 122.166 142.621 122.575 139.009C122.814 137.133 122.91 135.243 122.863 133.353C122.863 133.353 122.689 127.701 122.106 125.077C122.106 125.077 121.473 113.712 121.406 110.566C121.378 109.061 121.46 104.67 121.545 100.494C121.644 95.9284 121.754 91.6226 121.754 91.6226L120.228 82.3488C120.228 82.3488 121.754 82.3488 122.106 82.8209C122.261 82.9685 122.43 83.0991 122.613 83.2106C124.608 84.5604 131.662 88.7109 131.662 88.7109C131.662 88.7109 135.561 90.2634 136.495 92.4876C137.429 94.7118 138.079 96.2896 138.535 96.9233C138.991 97.557 139.232 100.535 139.232 100.535C139.232 100.535 140.575 106.016 141.623 106.945C142.671 107.873 143.428 113.766 143.428 113.766L134.164 121.054C134.164 121.054 133.35 133.176 133.173 133.645C132.995 134.113 136.558 144.594 136.558 144.594Z"
            fill="white" />
        <path opacity="0.1"
            d="M125.463 94.3124L126.3 96.7521L121.897 101.188C121.995 96.6253 122.106 92.3164 122.106 92.3164L120.579 83.0426C120.579 83.0426 122.106 83.0426 122.458 83.5147C122.612 83.6618 122.782 83.7915 122.964 83.9012L126.708 94.7053L125.463 94.3124Z"
            fill="black" />
        <path
            d="M125.112 93.6123L125.951 96.052L121.549 100.488C121.647 95.9221 121.758 91.6163 121.758 91.6163L120.228 82.3425C120.228 82.3425 121.758 82.3425 122.106 82.8146C122.261 82.9613 122.431 83.0918 122.613 83.2043L126.36 94.0052L125.112 93.6123Z"
            fill="white" />
        <path opacity="0.1"
            d="M125.112 69.4726C125.114 70.6143 124.935 71.7491 124.58 72.8342C124.52 72.8435 124.459 72.8408 124.4 72.8261C124.341 72.8114 124.286 72.7851 124.238 72.7486C124.155 69.8971 122.752 67.2199 121.026 64.9418C120.541 64.254 119.954 63.6449 119.284 63.1358C118.607 62.627 117.764 62.3887 116.921 62.4673C115.971 62.5972 115.132 63.2436 114.172 63.3259C112.905 63.4305 111.771 62.5529 110.514 62.5085C110.002 62.5134 109.498 62.6272 109.034 62.8425C108.571 63.0578 108.158 63.3695 107.825 63.7568C107.164 64.5386 106.673 65.4492 106.383 66.4309C105.885 67.9196 105.614 69.4747 105.579 71.0441C105.563 71.9312 105.478 73.0433 104.654 73.3665C104.716 72.714 104.642 72.0558 104.436 71.4335C104.231 70.8113 103.898 70.2384 103.46 69.7514L103.441 69.7324C103.441 69.6437 103.441 69.5613 103.441 69.4726C103.416 68.0334 103.679 66.6037 104.212 65.2669C104.746 63.9301 105.54 62.713 106.549 61.6865C107.558 60.66 108.76 59.8447 110.087 59.2882C111.415 58.7317 112.839 58.4451 114.278 58.4451C115.717 58.4451 117.141 58.7317 118.468 59.2882C119.795 59.8447 120.998 60.66 122.007 61.6865C123.016 62.713 123.81 63.9301 124.344 65.2669C124.877 66.6037 125.14 68.0334 125.115 69.4726H125.112Z"
            fill="black" />
        <path
            d="M118.764 52.2588C117.119 51.4843 115.247 51.3379 113.5 51.8469C112.623 52.1067 111.796 52.5281 110.906 52.7404C109.006 53.1998 106.789 52.7024 105.158 53.8145C104.252 54.4481 103.707 55.4493 103.2 56.422L101.933 58.8363C101.243 60.1575 100.546 61.5009 100.258 62.9552C99.9697 64.4094 100.144 66.038 101.066 67.2071C101.737 68.0594 102.728 68.5948 103.457 69.3964C103.893 69.884 104.224 70.4565 104.429 71.078C104.634 71.6996 104.709 72.3567 104.648 73.0084C105.474 72.6915 105.554 71.5763 105.573 70.6891C105.608 69.1198 105.879 67.5646 106.377 66.076C106.666 65.094 107.157 64.1832 107.818 63.4019C108.152 63.0148 108.565 62.7034 109.028 62.4881C109.492 62.2729 109.996 62.1588 110.507 62.1536C111.774 62.1979 112.911 63.0724 114.166 62.9678C115.116 62.8886 115.958 62.2391 116.915 62.1124C117.758 62.0326 118.601 62.271 119.278 62.7809C119.947 63.2892 120.534 63.8984 121.016 64.5869C122.746 66.8649 124.149 69.5358 124.231 72.3937C124.589 72.6567 125.105 72.3145 125.283 71.9089C125.46 71.5034 125.466 71.0281 125.691 70.6416C125.951 70.1949 126.448 69.9572 126.838 69.6214C127.826 68.7691 128.073 67.3338 128.035 66.0316C127.997 64.7295 127.744 63.4082 127.991 62.1282C128.14 61.3425 128.475 60.6074 128.659 59.8312C128.843 59.0549 128.865 58.1836 128.431 57.5151C127.798 56.5329 126.464 56.3396 125.302 56.2478C123.981 56.1337 122.8 56.2794 121.957 55.1673C121.562 54.587 121.117 54.0421 120.627 53.5388C120.459 53.3741 118.764 52.3285 118.764 52.2588Z"
            fill="#512E4E" />
        <path opacity="0.1"
            d="M84.339 119.073L81.0292 112.952L79.9808 122.397C79.9808 122.397 80.5636 126.592 80.4464 127.235C80.3292 127.878 82.8346 133.644 82.8346 133.644C82.8346 133.644 91.1107 148.39 94.4903 149.15L105.908 140.989L102.88 137.142C102.88 137.142 101.832 136.734 101.569 137.142C101.569 137.142 95.9472 127.466 95.3644 126.766C94.7816 126.066 94.8957 124.669 94.8957 124.669C94.8957 124.669 94.0215 123.737 94.3129 122.863C94.6043 121.988 92.6247 118.956 92.6247 118.956L94.4301 117.267L84.339 119.073Z"
            fill="black" />
        <path
            d="M81.2034 112.255L80.3293 112.952L79.2809 122.397C79.2809 122.397 79.8637 126.592 79.7465 127.235C79.6293 127.878 82.1378 133.644 82.1378 133.644C82.1378 133.644 90.4108 148.39 93.7903 149.15L105.212 140.989L102.181 137.142C102.181 137.142 101.132 136.734 100.869 137.142C100.869 137.142 95.2473 127.466 94.6645 126.766C94.0817 126.066 94.1989 124.668 94.1989 124.668C94.1989 124.668 93.3247 123.737 93.6161 122.863C93.9075 121.988 91.9248 118.956 91.9248 118.956L93.7301 117.267L81.2034 112.255Z"
            fill="white" />
        <path opacity="0.1"
            d="M135.45 149.255C136.083 150.025 135.684 153.482 135.684 153.482L133.936 156.377C133.936 156.377 134.04 158.247 134.047 160.766L131.107 161.684C130.842 161.767 130.56 161.786 130.286 161.738C130.012 161.69 129.753 161.577 129.532 161.408C129.31 161.24 129.132 161.021 129.012 160.77C128.892 160.519 128.834 160.242 128.843 159.964L129.35 143.612L136.207 146.235C135.624 146.641 136.264 147.636 136.264 147.636C136.264 147.636 134.81 148.485 135.45 149.255Z"
            fill="black" />
        <path
            d="M135.801 148.903C136.435 149.673 136.036 153.133 136.036 153.133L134.287 156.029C134.287 156.029 134.392 157.895 134.401 160.417L131.408 161.352C131.148 161.433 130.872 161.45 130.604 161.403C130.336 161.356 130.083 161.245 129.866 161.08C129.649 160.915 129.475 160.701 129.357 160.455C129.24 160.209 129.183 159.939 129.191 159.666L129.701 143.264L136.562 145.887C135.976 146.293 136.615 147.284 136.615 147.284C136.615 147.284 135.168 148.137 135.801 148.903Z"
            fill="white" />
        <path
            d="M138.072 141.109C138.072 141.109 137.607 144.084 136.441 144.258C135.276 144.433 134.753 149.071 133.591 148.906C132.428 148.742 133.198 144.594 133.239 143.79C133.28 142.985 131.972 139.652 132.951 138.894C133.93 138.137 137.027 138.894 137.027 138.894L138.072 141.109Z"
            fill="#CF6F80" />
        <path opacity="0.1"
            d="M140.552 118.199L142.75 113.763C142.75 113.763 143.625 117.144 143.625 118.95C143.625 120.756 144.847 120.933 144.847 120.933C144.847 120.933 146.187 122.517 145.481 123.67C144.774 124.824 144.489 127.694 144.489 127.694C144.489 127.694 144.721 133.172 143.672 133.93C142.624 134.687 142.405 136.496 142.405 136.496C142.405 136.496 140.479 139.934 140.54 140.751C140.6 141.568 137.86 147.104 137.86 147.104C137.86 147.104 139.2 140.225 131.393 137.253C131.393 137.253 131.332 134.918 131.915 134.278C132.498 133.638 133.407 133.347 132.837 130.112C132.267 126.877 132.672 123.011 132.672 122.235C132.672 121.459 134.42 116.618 134.42 116.618L140.552 118.199Z"
            fill="black" />
        <path
            d="M141.503 113.129L143.422 113.763C143.422 113.763 144.299 117.144 144.299 118.95C144.299 120.756 145.522 120.933 145.522 120.933C145.522 120.933 146.862 122.517 146.155 123.67C145.449 124.824 145.167 127.694 145.167 127.694C145.167 127.694 145.398 133.172 144.35 133.93C143.302 134.687 143.067 136.496 143.067 136.496C143.067 136.496 141.145 139.934 141.205 140.751C141.265 141.569 138.522 147.104 138.522 147.104C138.522 147.104 139.865 140.225 132.055 137.253C132.055 137.253 131.997 134.918 132.58 134.278C133.163 133.638 134.072 133.347 133.502 130.112C132.932 126.877 133.337 123.011 133.337 122.235C133.337 121.459 135.086 116.618 135.086 116.618L141.503 113.129Z"
            fill="white" />
        <path opacity="0.1"
            d="M99.1082 228.099C99.1082 228.099 102.168 226.176 104.176 227.574C106.184 228.971 99.1082 228.099 99.1082 228.099Z"
            fill="black" />
        <path opacity="0.1"
            d="M122.882 222.153C122.882 222.153 125.59 221.804 127.864 224.253C130.138 226.702 122.882 222.153 122.882 222.153Z"
            fill="black" />
        <g opacity="0.1">
            <path opacity="0.1"
                d="M126.844 68.9277C126.455 69.2635 125.954 69.5043 125.694 69.9511C125.473 70.3345 125.466 70.8065 125.289 71.2184C125.112 71.6303 124.595 71.9662 124.237 71.7064C124.155 68.8548 122.749 66.1776 121.023 63.8964C120.54 63.2079 119.953 62.5987 119.284 62.0904C118.606 61.5806 117.762 61.3422 116.918 61.4219C115.968 61.5518 115.131 62.1981 114.172 62.2773C112.905 62.3851 111.768 61.5074 110.51 61.4631C109.999 61.4681 109.495 61.5824 109.032 61.7983C108.569 62.0141 108.157 62.3265 107.825 62.7146C107.163 63.4947 106.672 64.4044 106.383 65.3855C105.886 66.8742 105.614 68.4293 105.579 69.9986C105.56 70.8826 105.478 71.9852 104.66 72.3147C104.679 72.5487 104.679 72.784 104.66 73.018C105.484 72.7012 105.566 71.5859 105.585 70.6988C105.621 69.1294 105.892 67.5743 106.39 66.0857C106.679 65.1037 107.17 64.1929 107.831 63.4116C108.164 63.0246 108.576 62.7131 109.039 62.4979C109.502 62.2826 110.006 62.1686 110.517 62.1633C111.784 62.2076 112.924 63.0821 114.178 62.9775C115.128 62.8983 115.971 62.2488 116.924 62.1221C117.769 62.0424 118.612 62.2808 119.29 62.7906C119.96 63.2989 120.546 63.9081 121.029 64.5966C122.755 66.8746 124.161 69.5455 124.244 72.4034C124.602 72.6664 125.118 72.3242 125.295 71.9186C125.473 71.5131 125.479 71.0378 125.701 70.6513C125.961 70.2045 126.461 69.9669 126.851 69.6311C127.839 68.7788 128.086 67.3435 128.048 66.0413C128.048 66.0001 128.048 65.959 128.048 65.9209C127.988 67.0489 127.687 68.199 126.844 68.9277Z"
                fill="black" />
            <path opacity="0.1"
                d="M103.463 68.7027C102.735 67.9011 101.74 67.3656 101.072 66.5165C100.509 65.7648 100.188 64.86 100.15 63.9216C100.05 65.0942 100.378 66.2633 101.072 67.2135C101.74 68.0658 102.735 68.6013 103.463 69.4029C104.163 70.1869 104.583 71.1808 104.657 72.229C104.706 71.5911 104.625 70.95 104.42 70.344C104.215 69.7381 103.889 69.1798 103.463 68.7027Z"
                fill="black" />
            <path opacity="0.1"
                d="M128.665 59.1374C128.479 59.9137 128.146 60.6519 127.994 61.4345C127.904 61.9574 127.871 62.4886 127.896 63.0187C127.906 62.7167 127.939 62.416 127.994 62.1189C128.146 61.3331 128.479 60.598 128.665 59.8218C128.774 59.3937 128.81 58.9501 128.77 58.5101C128.75 58.7215 128.715 58.9311 128.665 59.1374Z"
                fill="black" />
        </g>
        <path opacity="0.1"
            d="M42.0397 240.982C59.0844 240.982 72.9019 238.762 72.9019 236.024C72.9019 233.285 59.0844 231.065 42.0397 231.065C24.9949 231.065 11.1774 233.285 11.1774 236.024C11.1774 238.762 24.9949 240.982 42.0397 240.982Z"
            fill="#0ABAB5" />
        <path d="M43.0342 141.036H41.0483V185.764H43.0342V141.036Z" fill="#535461" />
        <path
            d="M55.5134 185.628L55.3898 187.643L55.2125 190.494L55.1396 191.679L54.9654 194.531L54.8894 195.716L54.712 198.567L52.7103 230.907C52.6233 232.298 52.0095 233.604 50.9939 234.559C49.9783 235.514 48.6372 236.045 47.2435 236.046H36.8358C35.4424 236.045 34.1017 235.513 33.0866 234.559C32.0715 233.604 31.4584 232.298 31.3722 230.907L29.3799 198.545L29.2026 195.694L29.1297 194.509L28.9523 191.657L28.8795 190.472L28.7021 187.621L28.5754 185.606C28.5534 185.218 28.6109 184.829 28.7442 184.465C28.8776 184.1 29.0841 183.766 29.351 183.484C29.6179 183.202 29.9397 182.977 30.2965 182.824C30.6533 182.671 31.0377 182.592 31.426 182.592H52.7135C53.1003 182.596 53.4824 182.678 53.8361 182.835C54.1898 182.992 54.5077 183.22 54.7701 183.504C55.0324 183.788 55.2337 184.124 55.3616 184.489C55.4894 184.854 55.5411 185.242 55.5134 185.628Z"
            fill="#3F3D56" />
        <path d="M55.3899 187.643L55.2125 190.485H28.8669L28.6895 187.643H55.3899Z" fill="#9D9CB5" />
        <path d="M55.1396 191.67L54.9654 194.515H29.1171L28.9397 191.67H55.1396Z" fill="#9D9CB5" />
        <path d="M54.8894 195.703L54.7152 198.545H29.3672L29.1899 195.703H54.8894Z" fill="#9D9CB5" />
        <path
            d="M25.6583 157.8C37.2221 166.171 42.0491 179.263 42.0491 179.263C42.0491 179.263 28.113 178.784 16.546 170.413C4.97897 162.043 0.161499 148.954 0.161499 148.954C0.161499 148.954 14.0913 149.429 25.6583 157.8Z"
            fill="#0ABAB5" />
        <path
            d="M0.152039 148.954C0.152039 148.954 14.6203 156.986 19.2604 163.636C23.9005 170.287 42.0492 179.263 42.0492 179.263"
            stroke="#535461" stroke-width="2" stroke-miterlimit="10" />
        <path
            d="M33.1237 140.938C39.4171 145.491 42.0492 152.617 42.0492 152.617C42.0492 152.617 34.4635 152.357 28.1669 147.804C21.8703 143.251 19.2446 136.122 19.2446 136.122C19.2446 136.122 26.8271 136.382 33.1237 140.938Z"
            fill="#0ABAB5" />
        <path
            d="M19.2446 136.122C19.2446 136.122 27.1185 140.495 29.6428 144.113C32.1672 147.731 42.0492 152.617 42.0492 152.617"
            stroke="#535461" stroke-width="2" stroke-miterlimit="10" />
        <path
            d="M51.1869 152.255C43.9559 160.205 42.4261 170.594 42.4261 170.594C42.4261 170.594 52.6216 168.091 59.8463 160.138C67.0709 152.186 68.607 141.8 68.607 141.8C68.607 141.8 58.4178 144.306 51.1869 152.255Z"
            fill="#0ABAB5" />
        <path
            d="M68.6134 141.803C68.6134 141.803 59.1938 149.952 56.7993 155.566C54.4048 161.181 42.4261 170.594 42.4261 170.594"
            stroke="#535461" stroke-width="2" stroke-miterlimit="10" />
        <path
            d="M316.626 149.458C316.626 149.458 311.397 123.433 313.399 120.195C313.399 120.195 313.471 117.185 313.351 113.348C313.351 113.202 313.351 113.057 313.351 112.908C313.703 113.142 314.07 113.354 314.45 113.541C316.294 114.489 318.412 114.763 320.436 114.314L318.853 112.55C318.473 112.128 318.077 111.672 317.994 111.114C317.912 110.557 318.14 110.059 318.336 109.562C319.841 105.76 319.92 100.979 317.022 98.0765C314.574 95.6369 313.978 92.4876 311.321 90.2602C309.379 88.6285 308.312 86.2364 307.305 83.9235C306.453 81.9686 305.594 79.9979 305.107 77.9258C304.727 76.3067 304.574 74.6307 304.052 73.0497C303.529 71.4687 302.551 69.932 301.021 69.2255C300.476 68.9752 299.871 68.8326 299.374 68.4999C298.721 68.0595 298.329 67.3435 297.857 66.7161C295.459 63.5478 287.43 65.4139 283.629 66.7003C282.596 67.0242 281.639 67.5545 280.817 68.2591L280.851 68.2021C280.88 68.1546 280.915 68.107 280.946 68.0595C280.53 68.396 280.171 68.7972 279.882 69.2477C279.328 70.1253 279.097 71.1487 278.634 72.0992C278.077 73.2239 274.976 76.3638 276.309 77.628C276.403 77.7129 276.51 77.7814 276.626 77.8307C277.127 78.0391 277.678 78.0943 278.21 77.9891L278.153 78.1254C277.697 79.2408 277.464 80.4343 277.466 81.6391C277.466 86.8447 281.757 91.065 287.056 91.065C288.052 91.0659 289.043 90.9131 289.992 90.6119C290.014 90.7323 290.033 90.8527 290.056 90.9731C290.056 91.0206 290.071 91.0681 290.078 91.1157L289.91 91.3501C289.901 91.3357 289.892 91.3219 289.881 91.3089L284.909 98.2603C284.149 98.7958 279.771 101.964 279.524 104.34C279.265 106.942 279.005 109.986 279.005 109.986L278.97 110.639C278.753 110.821 278.499 110.953 278.225 111.027C277.952 111.101 277.666 111.114 277.386 111.067C275.834 110.813 275.834 116.77 275.834 116.77C275.834 116.77 274.802 117.72 274.092 116.897C273.383 116.073 271.508 118.864 271.508 118.864L259.757 119.371L259.488 119.387L258.854 117.426C258.786 117.219 258.639 117.047 258.445 116.948C258.251 116.849 258.026 116.831 257.819 116.897C257.77 116.913 257.722 116.933 257.676 116.957L257.632 116.982L257.55 117.039L257.508 117.077C257.486 117.098 257.464 117.12 257.445 117.144L257.407 117.188L257.388 117.207C257.315 117.308 257.266 117.425 257.247 117.548C257.227 117.672 257.236 117.798 257.274 117.917L257.819 119.599C255.551 120.055 253.232 121.342 255.123 124.884L245.539 123.113L248.64 125.717L264.647 129.022C264.435 129.402 264.575 129.953 265.237 130.73C268.087 134.079 273.281 134.988 275.372 135.222C275.924 136.458 276.614 137.627 277.428 138.708L277.247 142.044C277.247 142.044 271.954 167.473 270.985 168.763C271.474 168.208 271.922 167.618 272.325 166.998C270.789 172.222 268.641 179.373 268.078 180.444C267.172 182.155 266.332 189.078 267.365 189.522C267.682 189.658 268.588 189.591 269.88 189.493V190.067L269.823 211.798C269.823 211.798 270.083 225.128 269.37 226.398C268.657 227.669 268.467 230.333 268.467 230.333C268.467 230.333 265.617 235.59 263.358 237.703C263.343 237.719 263.326 237.734 263.308 237.747L263.238 237.253C263.238 237.253 260.524 240.681 254.518 240.488C254.518 240.488 250.904 242.839 256.264 242.965C261.623 243.092 268.467 242.775 268.467 242.775C268.467 242.775 273.247 235.488 277.25 236.439V241.961H278.476V236.35C279.044 235.976 279.531 235.49 279.906 234.922C280.281 234.354 280.537 233.715 280.658 233.045C280.763 232.355 280.686 231.649 280.435 230.997C280.184 230.345 279.768 229.77 279.227 229.329C278.983 229.109 278.789 228.841 278.654 228.543C278.519 228.244 278.448 227.92 278.444 227.593L278.4 227.631C278.4 227.52 278.371 227.406 278.359 227.288C278.007 224.437 277.567 218.553 279.122 214.2C281.254 208.231 281.9 199.917 280.348 194.968C279.847 193.386 279.436 191.777 279.116 190.149C279.078 189.943 279.043 189.747 279.011 189.563C280.072 189.706 281.123 189.918 282.156 190.197C285.751 191.188 293.616 191.372 300.33 191.318C300.346 191.502 300.365 191.695 300.387 191.888C300.507 193.232 300.757 194.56 301.135 195.855C301.977 198.39 302.364 209.565 302.364 209.565C302.364 209.565 303.45 218.753 302.858 222.492C302.541 224.57 302.224 226.658 302.044 228.755V228.797C302.044 228.797 300.264 233.866 298.962 236.619C298.93 236.689 298.896 236.759 298.864 236.825C298.517 236.857 298.175 236.932 297.847 237.05C297.847 237.05 296.102 240.535 294.363 241.112C292.624 241.689 293.201 243.587 297.138 242.889C301.075 242.192 307.02 241.622 307.02 241.622L307.276 238.067L308.486 236.553L308.169 240.098L309.458 239.845L309.287 235.533L311.267 233.055C311.267 233.055 313.658 230.926 310.105 226.737V226.829C310.067 226.769 310.032 226.705 309.991 226.645V226.626C309.401 225.714 308.933 224.012 309.791 220.993C311.343 215.537 312.246 210.585 312.246 210.585C312.246 210.585 315.711 197.319 311.546 191.042H311.729C311.303 190.159 311.001 189.221 310.833 188.254C310.812 188.14 310.793 188.023 310.776 187.903C313.858 187.725 316.883 187.168 319.35 185.964C319.34 185.951 317.855 154.47 316.626 149.458ZM277.5 127.501V127.564L276.867 127.596L277.5 127.501ZM275.328 127.802C275.223 127.825 275.126 127.872 275.043 127.938C274.77 128.324 274.599 128.772 274.545 129.24L273.557 129.019C273.557 129.019 272.863 128.87 271.866 128.702L271.394 128.227C272.692 128.119 274.042 127.96 275.328 127.802Z"
            fill="url(#paint1_linear)" />
        <path d="M308.024 235.577L307.647 240.066L308.91 239.813L308.72 234.943L308.024 235.577Z" fill="#1D2366" />
        <path
            d="M279.192 214.26C277.668 218.601 278.099 224.459 278.441 227.304C278.568 228.356 278.685 228.996 278.685 228.996C278.685 228.996 276.408 234.186 276.218 234.382C276.028 234.579 269.516 238.555 269.516 238.555L264.964 241.213C264.964 241.213 260.346 239.189 262.56 238.492C263.013 238.31 263.42 238.032 263.754 237.678C265.971 235.571 268.755 230.333 268.755 230.333C268.755 230.333 268.945 227.675 269.642 226.411C270.339 225.147 270.086 211.862 270.086 211.862L270.14 190.206V187.383L278.802 187.446C278.857 188.405 278.982 189.358 279.176 190.298C279.487 191.921 279.89 193.524 280.383 195.101C281.909 200.041 281.276 208.313 279.192 214.26Z"
            fill="#FFB0B1" />
        <path opacity="0.1"
            d="M278.685 228.996C278.685 228.996 276.408 234.186 276.218 234.382C276.028 234.579 269.516 238.555 269.516 238.555L264.964 241.213C264.964 241.213 260.346 239.189 262.56 238.492C263.013 238.31 263.42 238.032 263.754 237.678L263.951 239.062L265.468 238.999L278.454 227.311C278.568 228.356 278.685 228.996 278.685 228.996Z"
            fill="black" />
        <path
            d="M278.527 227.605L265.468 239.372L263.951 239.436L263.634 237.218C263.634 237.218 260.98 240.633 255.082 240.443C255.082 240.443 251.541 242.785 256.789 242.912C262.038 243.038 268.74 242.721 268.74 242.721C268.74 242.721 273.421 235.434 277.339 236.385V241.888H278.542V236.334C279.102 235.957 279.58 235.471 279.946 234.905C280.313 234.338 280.562 233.704 280.677 233.039C280.781 232.354 280.708 231.654 280.463 231.006C280.218 230.358 279.811 229.783 279.28 229.338C279.043 229.116 278.854 228.848 278.725 228.55C278.595 228.252 278.528 227.93 278.527 227.605Z"
            fill="#1D2366" />
        <path
            d="M309.227 221.028C308.385 224.038 308.844 225.733 309.42 226.642V226.661C310.16 227.784 310.674 229.04 310.934 230.359L310.985 230.644L305.043 239.309L301.819 240.576C301.819 240.576 296.634 238.805 297.581 238.298C297.819 238.175 298.189 237.516 298.614 236.606C299.881 233.866 301.629 228.809 301.629 228.809V228.768C301.813 226.68 302.104 224.598 302.427 222.526C303.007 218.797 301.942 209.644 301.942 209.644C301.942 209.644 301.562 198.513 300.739 195.982C300.367 194.695 300.12 193.375 300.001 192.04C299.83 190.456 299.792 189.151 299.792 189.151C299.792 189.151 303.206 184.398 309.465 189.531C309.965 189.94 310.406 190.418 310.773 190.95C315.096 197.103 311.615 210.658 311.615 210.658C311.615 210.658 310.744 215.588 309.227 221.028Z"
            fill="#FFB0B1" />
        <path opacity="0.1"
            d="M310.995 230.644L305.053 239.309L301.828 240.577C301.828 240.577 296.644 238.806 297.591 238.299C297.828 238.175 298.199 237.516 298.623 236.607C300.818 236.588 301.955 238.679 301.955 238.679L304.736 238.235C304.736 238.235 308.404 231.024 309.227 230.584C310.051 230.143 309.354 227.292 309.354 227.292V226.566C309.376 226.591 309.395 226.62 309.42 226.645V226.664C310.16 227.787 310.674 229.043 310.934 230.362L310.995 230.644Z"
            fill="black" />
        <path
            d="M302.145 238.866C302.145 238.866 300.562 235.957 297.527 237.031C297.527 237.031 295.82 240.516 294.113 241.08C292.406 241.644 292.976 243.545 296.834 242.851C300.691 242.158 306.507 241.584 306.507 241.584L306.76 238.039L310.681 233.042C310.681 233.042 313.019 230.923 309.541 226.75V227.475C309.541 227.475 310.238 230.327 309.414 230.767C308.591 231.208 304.936 238.422 304.936 238.422L302.145 238.866Z"
            fill="#1D2366" />
        <path opacity="0.1"
            d="M278.812 187.44C278.866 188.398 278.991 189.352 279.185 190.292C275.619 189.769 272.309 190.029 270.14 190.2V187.377L278.812 187.44Z"
            fill="black" />
        <path opacity="0.1"
            d="M311.125 191.74C311.125 191.74 306.057 191.987 300.014 192.037C299.843 190.453 299.805 189.148 299.805 189.148C299.805 189.148 303.219 184.395 309.477 189.528C309.978 189.937 310.418 190.415 310.786 190.947C310.884 191.218 310.997 191.482 311.125 191.74Z"
            fill="black" />
        <path
            d="M311.124 191.169C311.124 191.169 288.928 192.243 282.163 190.345C275.397 188.448 268.692 190.092 267.682 189.652C266.671 189.211 267.492 182.314 268.378 180.606C269.265 178.898 274.13 161.627 274.13 161.627L278.812 137.212L283.743 135.853L284.091 135.755L292.684 133.385L298.981 131.645C298.981 131.645 311.501 180.543 310.428 184.148C310.038 185.529 309.975 186.981 310.244 188.391C310.408 189.353 310.704 190.288 311.124 191.169Z"
            fill="#F1D427" />
        <path
            d="M262.494 120.515C262.494 120.515 258.059 125.267 261.417 127.916C264.774 130.565 266.982 128.169 266.982 128.169L262.494 120.515Z"
            fill="#C7DAF5" />
        <path opacity="0.1"
            d="M262.494 120.515C262.494 120.515 258.059 125.267 261.417 127.916C264.774 130.565 266.982 128.169 266.982 128.169L262.494 120.515Z"
            fill="black" />
        <path
            d="M298.319 89.2684C298.319 89.2684 297.8 89.7627 297.017 90.4914C295.902 91.5338 294.252 93.0578 292.789 94.3346C290.762 96.0994 289.09 97.3953 289.688 96.2895C290.287 95.1838 290.173 93.2574 289.875 91.4546C289.853 91.3342 289.834 91.2138 289.812 91.0966C289.565 89.7726 289.238 88.4648 288.833 87.1805C288.833 87.1805 292.108 82.9476 293.92 81.2778C294.594 80.6442 295.066 80.3844 295.095 80.8248C295.126 81.4173 295.57 82.7258 296.121 84.1135C296.137 84.1579 296.153 84.1991 296.172 84.2434C296.539 85.1939 296.954 86.1698 297.318 87.0126C297.876 88.3053 298.319 89.2684 298.319 89.2684Z"
            fill="#FFB0B1" />
        <path opacity="0.1"
            d="M296.172 84.2434C295.864 85.8993 295.117 87.4422 294.01 88.7107C292.902 89.9792 291.474 90.9269 289.875 91.4546C289.623 90.0083 289.275 88.5804 288.833 87.1805C288.833 87.1805 295 79.2121 295.095 80.8248C295.117 81.4363 295.598 82.7923 296.172 84.2434Z"
            fill="black" />
        <path opacity="0.1"
            d="M289.261 93.5837L290.059 92.459C290.059 92.459 290.588 95.6843 292.532 94.2617C294.477 92.8392 294.572 104.968 294.572 104.968L292.485 136.185L277.402 135.282L277.83 120.198L279.537 112.594L283.759 101.539L286.271 97.8863L289.261 93.5837Z"
            fill="black" />
        <path
            d="M294.572 105.161L292.672 133.388L292.472 136.379L284.063 135.875L283.746 135.856L277.412 135.476L277.839 120.388L279.546 112.784L283.768 101.73L286.28 98.0766L289.27 93.7581L290.068 92.6365C290.068 92.6365 290.597 95.8619 292.542 94.4393L292.583 94.4108C294.483 93.2068 294.572 105.161 294.572 105.161Z"
            fill="#F1D427" />
        <path
            d="M279.759 110.142C279.759 110.142 279.002 111.726 277.481 111.469C275.961 111.213 275.964 117.172 275.964 117.172C275.964 117.172 274.954 118.123 274.257 117.299C273.56 116.475 271.723 119.26 271.723 119.26L260.213 119.767C260.213 119.767 265.335 122.109 264.331 129.193C264.331 129.193 281.719 128.116 282.289 126.471C282.859 124.827 279.759 110.142 279.759 110.142Z"
            fill="white" />
        <path opacity="0.03"
            d="M279.759 110.142C279.759 110.142 279.002 111.726 277.481 111.469C275.961 111.213 275.964 117.172 275.964 117.172C275.964 117.172 274.954 118.123 274.257 117.299C273.56 116.475 271.723 119.26 271.723 119.26L260.213 119.767C260.213 119.767 265.335 122.109 264.331 129.193C264.331 129.193 281.719 128.116 282.289 126.471C282.859 124.827 279.759 110.142 279.759 110.142Z"
            fill="black" />
        <path d="M246.309 123.49L249.343 126.082L274.32 131.332L271.223 128.17L246.309 123.49Z" fill="white" />
        <path
            d="M289.308 94.5819C288.893 95.2155 287.705 98.4599 286.714 101.292C285.887 103.653 285.197 105.728 285.197 105.728C285.197 105.728 283.585 116.228 282.761 118.126C281.938 120.024 282.384 127.425 282.384 127.425L279.315 145.703C279.315 145.703 277.925 155.129 275.777 160.759C273.658 166.301 271.299 168.899 271.226 168.981C272.176 167.695 277.355 142.367 277.355 142.367L279.065 110.424C279.065 110.424 279.315 107.388 279.569 104.793C279.822 102.199 284.953 98.6564 284.953 98.6564L289.9 91.6194C290.398 92.2848 290.065 93.4444 289.308 94.5819Z"
            fill="white" />
        <path
            d="M276.408 135.634C276.408 135.634 269.123 135.317 265.594 131.078C262.066 126.839 273.75 129.386 273.75 129.386L276.788 130.083L276.408 135.634Z"
            fill="#FFB0B1" />
        <path opacity="0.1"
            d="M310.428 184.151C310.038 185.532 309.975 186.984 310.244 188.394C302.297 188.958 293.796 186.809 293.796 186.809C292.213 188.267 288.041 190.415 288.041 190.415L285.767 162.217C284.313 158.415 283.743 138.495 283.743 138.495C283.743 138.495 283.873 137.453 284.06 135.891C284.06 135.853 284.06 135.812 284.076 135.774C284.643 131.411 285.767 123.221 286.318 122.115C287.078 120.594 283.981 116.548 283.981 116.548L285.39 104.524L285.561 103.073C288.532 101.745 290.809 97.5062 290.809 97.5062L292.558 94.4424C294.458 93.2225 294.556 105.177 294.556 105.177L292.656 133.404L298.953 131.664C298.953 131.664 311.501 180.546 310.428 184.151Z"
            fill="black" />
        <path
            d="M318.583 186.1C309.921 190.402 294.176 186.417 294.176 186.417C292.593 187.874 288.421 190.022 288.421 190.022L286.144 161.824C284.693 158.022 284.123 138.102 284.123 138.102C284.123 138.102 285.954 123.24 286.714 121.722C286.936 121.278 286.828 120.619 286.565 119.91C285.273 116.532 284.797 112.896 285.178 109.299L285.786 104.131L285.954 102.683C288.928 101.353 291.205 97.1134 291.205 97.1134L292.789 94.3379L295.703 89.2241L297.084 86.8035L297.318 87.0158L299.108 88.638C299.108 88.638 299.868 89.2717 301.008 90.2222C303.488 92.3133 307.773 95.9949 309.984 98.2476C311.929 100.231 312.543 107.946 312.721 113.754C312.838 117.578 312.768 120.575 312.768 120.575C310.808 123.804 315.936 149.724 315.936 149.724C317.13 154.733 318.583 186.1 318.583 186.1Z"
            fill="white" />
        <path opacity="0.03"
            d="M301.955 97.05C301.955 97.05 296.01 108.371 296.701 112.673C297.391 116.976 299.355 121.846 298.408 122.983C298.082 123.414 297.662 123.764 297.179 124.005C296.696 124.246 296.164 124.373 295.624 124.374C294.673 124.437 292.14 126.208 292.14 126.399C292.14 126.589 289.799 126.589 287.705 127.476C285.612 128.363 282.521 128.867 282.521 128.867C282.521 128.867 276.503 128.677 275.942 129.247C275.381 129.817 274.805 133.229 276.005 135.951C277.206 138.673 278.539 140.704 279.546 141.074C280.554 141.445 286.945 139.303 292.13 138.796C297.315 138.289 302.943 134.18 302.943 134.18C302.943 134.18 309.142 131.962 310.228 128.233C311.314 124.504 308.901 104.008 308.901 104.008C308.901 104.008 307.077 94.4551 301.955 97.05Z"
            fill="black" />
        <path opacity="0.03"
            d="M301.195 96.0994C301.195 96.0994 295.25 107.423 295.947 111.723C296.644 116.022 298.601 120.895 297.651 122.036C297.327 122.467 296.907 122.817 296.424 123.059C295.941 123.3 295.409 123.426 294.87 123.427C293.92 123.49 291.386 125.261 291.386 125.451C291.386 125.641 289.045 125.641 286.952 126.525C284.858 127.409 281.767 127.916 281.767 127.916C281.767 127.916 275.749 127.726 275.191 128.296C274.634 128.867 274.051 132.282 275.255 135.001C276.458 137.719 277.789 139.753 278.796 140.124C279.803 140.494 286.195 138.353 291.379 137.849C296.564 137.345 302.193 133.229 302.193 133.229C302.193 133.229 308.388 131.012 309.462 127.286C310.535 123.56 308.135 103.057 308.135 103.057C308.135 103.057 306.316 93.5077 301.195 96.0994Z"
            fill="black" />
        <path
            d="M301.768 96.4797C301.768 96.4797 295.823 107.803 296.52 112.103C297.217 116.402 299.174 121.275 298.227 122.413C297.903 122.845 297.483 123.196 296.999 123.438C296.516 123.68 295.983 123.806 295.443 123.807C294.493 123.87 291.959 125.641 291.959 125.828C291.959 126.015 289.622 126.018 287.525 126.905C285.428 127.793 282.34 128.296 282.34 128.296C282.34 128.296 276.322 128.106 275.761 128.677C275.201 129.247 274.624 132.662 275.825 135.381C277.025 138.099 278.359 140.133 279.366 140.504C280.373 140.875 286.765 138.733 291.95 138.226C297.134 137.719 302.763 133.61 302.763 133.61C302.763 133.61 308.961 131.392 310.048 127.663C311.134 123.934 308.736 103.437 308.736 103.437C308.736 103.437 306.887 93.9007 301.768 96.4797Z"
            fill="white" />
        <path opacity="0.1"
            d="M301.638 126.851C301.638 126.851 296.887 125.901 298.541 127.485C300.194 129.069 300.185 130.457 302.209 130.394C304.232 130.33 301.638 126.851 301.638 126.851Z"
            fill="black" />
        <path opacity="0.1"
            d="M309.667 160.937C309.667 160.937 307.52 162.391 311.628 165.743C315.736 169.095 309.667 160.937 309.667 160.937Z"
            fill="black" />
        <path opacity="0.1"
            d="M305.569 172.891C305.569 173.081 304.809 179.861 307.653 181.556C310.497 183.251 305.569 172.891 305.569 172.891Z"
            fill="black" />
        <path
            d="M260.41 119.751C258.116 119.83 253.163 120.531 255.731 125.324C258.002 129.567 261.819 126.731 263.966 124.58C263.443 122.574 262.17 120.846 260.41 119.751Z"
            fill="#FFB0B1" />
        <path d="M263.995 124.543L264.091 124.444L263.995 124.543Z" fill="#FFB0B1" />
        <path opacity="0.1"
            d="M301.008 90.4154C298.576 92.0787 296.536 93.4823 296.137 93.7738C295.047 94.5817 292.969 99.3248 291.63 101.745C290.562 103.694 287.094 104.195 285.786 104.318L285.954 102.87C288.928 101.539 291.205 97.3002 291.205 97.3002L297.084 86.9904L299.108 88.8312C299.108 88.8312 299.868 89.4648 301.008 90.4154Z"
            fill="black" />
        <path
            d="M301.008 90.2253C298.576 91.8887 296.536 93.2923 296.137 93.587C295.047 94.3917 292.969 99.1348 291.63 101.555C290.562 103.504 287.094 104.005 285.786 104.128L285.954 102.68C288.928 101.349 291.205 97.1102 291.205 97.1102L297.084 86.8004L299.108 88.6348C299.108 88.6348 299.868 89.2622 301.008 90.2253Z"
            fill="#DCE7FF" />
        <path
            d="M296.327 82.1524C296.328 84.0543 295.752 85.9117 294.674 87.4784C293.4 89.3307 291.505 90.6651 289.333 91.2395C287.16 91.8138 284.854 91.59 282.832 90.6088C280.81 89.6275 279.207 87.9538 278.313 85.8912C277.42 83.8287 277.295 81.514 277.961 79.3671C278.627 77.2203 280.041 75.3836 281.946 74.1902C283.85 72.9968 286.119 72.5259 288.341 72.8628C290.563 73.1998 292.59 74.3223 294.055 76.0267C295.521 77.7311 296.327 79.9044 296.327 82.1524Z"
            fill="#FFB0B1" />
        <path opacity="0.1"
            d="M312.721 113.757C311.435 112.965 310.387 111.84 309.69 110.5C309.161 109.454 308.809 108.247 307.907 107.505C307.093 106.84 306.006 106.679 304.993 106.381C301.661 105.395 298.867 102.354 298.762 98.8812C298.712 97.2464 299.222 95.6146 298.991 93.9956C298.859 93.0793 298.495 92.2121 297.933 91.4768C297.654 91.1251 297.347 90.7957 297.017 90.4914C296.574 90.0732 296.108 89.6676 295.703 89.2241C295.447 88.9494 295.224 88.6465 295.038 88.3211C294.887 88.0548 294.765 87.7734 294.673 87.4815C294.04 85.5424 294.616 83.2422 293.92 81.281L293.882 81.1733C293.619 80.4762 293.084 79.7792 292.339 79.7253C291.595 79.6715 290.958 80.2893 290.249 80.565C288.763 81.1416 287.161 80.1594 285.922 79.1582C284.684 78.157 283.287 77.0132 281.713 77.235C280.671 77.3839 279.847 78.0936 278.888 78.4612C278.671 78.5451 278.447 78.6097 278.219 78.6544C279.032 76.6283 280.524 74.9484 282.44 73.9032C284.355 72.8581 286.575 72.513 288.718 72.9273C290.86 73.3415 292.792 74.4892 294.18 76.1733C295.569 77.8573 296.328 79.9725 296.327 82.1555C296.328 82.8147 296.259 83.4721 296.121 84.1167C296.137 84.161 296.153 84.2022 296.172 84.2466C296.539 85.1971 296.954 86.1729 297.318 87.0157L299.108 88.6379C299.108 88.6379 299.868 89.2716 301.008 90.2221C303.488 92.3132 307.773 95.9949 309.984 98.2476C311.929 100.237 312.537 107.949 312.721 113.757Z"
            fill="black" />
        <path
            d="M278.777 72.6727C279.23 71.7507 279.455 70.7178 279.996 69.8433C280.791 68.576 282.179 67.7649 283.604 67.2738C287.325 65.9906 295.19 64.1276 297.54 67.2738C298.002 67.9075 298.386 68.6109 299.025 69.0481C299.513 69.3808 300.102 69.5233 300.638 69.7736C302.136 70.477 303.092 72.0105 303.602 73.5757C304.112 75.1408 304.264 76.8201 304.638 78.4328C305.116 80.5017 305.955 82.4629 306.792 84.4114C307.777 86.7117 308.822 89.0975 310.722 90.7228C313.316 92.9407 313.89 96.0805 316.297 98.5138C319.147 101.403 319.055 106.172 317.586 109.958C317.393 110.455 317.174 110.975 317.25 111.504C317.326 112.033 317.719 112.515 318.089 112.936L319.648 114.695C315.961 115.585 311.79 113.659 310.073 110.278C309.544 109.232 309.192 108.028 308.287 107.284C307.476 106.618 306.386 106.46 305.376 106.162C302.044 105.174 299.25 102.129 299.146 98.6564C299.095 97.0247 299.605 95.393 299.374 93.7771C299.245 92.8547 298.88 91.9813 298.313 91.2424C297.442 90.105 296.127 89.3414 295.418 88.0741C294.217 85.9544 295.13 83.2011 294.265 80.9263C293.999 80.2292 293.467 79.5322 292.722 79.4783C291.978 79.4245 291.342 80.0423 290.629 80.3179C289.147 80.8946 287.544 79.9156 286.306 78.9112C285.067 77.9068 283.67 76.7662 282.093 76.9912C281.051 77.1369 280.231 77.8466 279.271 78.2173C278.561 78.4898 277.124 78.7338 276.503 78.1349C275.191 76.9278 278.229 73.8006 278.777 72.6727Z"
            fill="#591D4B" />
        <path opacity="0.1"
            d="M310.953 109.232C310.421 108.187 310.073 106.983 309.167 106.241C308.356 105.576 307.267 105.414 306.253 105.117C302.924 104.131 300.131 101.086 300.023 97.6138C299.972 95.9821 300.482 94.3473 300.254 92.7314C300.122 91.8149 299.756 90.9477 299.193 90.2126C298.319 89.0751 297.005 88.3115 296.298 87.0442C295.098 84.9277 296.01 82.1744 295.142 79.8964C294.879 79.2025 294.344 78.5055 293.603 78.4485C292.862 78.3914 292.219 79.0156 291.509 79.2912C290.027 79.8679 288.421 78.8857 287.186 77.8845C285.951 76.8833 284.548 75.7395 282.973 75.9613C281.931 76.1102 281.108 76.8199 280.151 77.1875C279.442 77.4599 278.001 77.7071 277.38 77.1082C276.075 75.8409 279.113 72.7201 279.657 71.5985C280.11 70.6733 280.335 69.6436 280.88 68.7691C280.908 68.7216 280.94 68.6741 280.972 68.6266C280.564 68.9643 280.213 69.3642 279.93 69.8115C279.388 70.686 279.163 71.7125 278.71 72.6409C278.162 73.7625 275.125 76.8928 276.433 78.1506C277.066 78.7526 278.492 78.5055 279.201 78.233C280.151 77.8623 280.981 77.1526 282.023 77.0069C283.607 76.7819 285.001 77.9257 286.236 78.9269C287.471 79.9281 289.086 80.9103 290.562 80.3336C291.272 80.058 291.893 79.437 292.653 79.494C293.413 79.551 293.92 80.2449 294.195 80.942C295.06 83.2168 294.148 85.9701 295.348 88.0898C296.058 89.3349 297.372 90.1143 298.243 91.2581C298.81 91.997 299.175 92.8704 299.304 93.7928C299.535 95.4087 299.025 97.0404 299.076 98.6721C299.181 102.157 301.974 105.189 305.306 106.178C306.31 106.476 307.406 106.634 308.217 107.3C309.126 108.044 309.484 109.248 310.003 110.294C311.72 113.674 315.891 115.601 319.578 114.71L318.843 113.88C315.647 113.928 312.414 112.109 310.953 109.232Z"
            fill="black" />
        <path opacity="0.1"
            d="M289.118 94.7719C288.703 95.4056 287.515 98.65 286.524 101.483C285.596 101.121 284.753 98.8179 284.753 98.8179L289.701 91.7778C290.208 92.4749 289.875 93.6313 289.118 94.7719Z"
            fill="black" />
        <path
            d="M289.308 94.5818C288.893 95.2154 287.705 98.4598 286.714 101.292C285.786 100.934 284.943 98.6278 284.943 98.6278L289.891 91.5908C290.398 92.2847 290.065 93.4443 289.308 94.5818Z"
            fill="#DCE7FF" />
        <path
            d="M260.543 126.95L257.8 118.297C257.767 118.196 257.755 118.089 257.764 117.983C257.773 117.877 257.803 117.774 257.851 117.679C257.9 117.585 257.967 117.501 258.049 117.432C258.13 117.364 258.224 117.312 258.325 117.28C258.53 117.216 258.751 117.236 258.94 117.334C259.13 117.433 259.274 117.602 259.339 117.806L262.082 126.449L261.809 128.258L260.543 126.95Z"
            fill="#BE8B87" />
        <path opacity="0.1"
            d="M258.059 117.537C258.264 117.472 258.486 117.491 258.676 117.589C258.867 117.688 259.011 117.858 259.076 118.062L261.819 126.706L261.613 128.062L261.813 128.271L262.085 126.462L259.326 117.819C259.261 117.615 259.118 117.445 258.928 117.347C258.738 117.248 258.517 117.229 258.313 117.293C258.141 117.348 257.993 117.46 257.892 117.609C257.945 117.58 258.002 117.556 258.059 117.537Z"
            fill="white" />
        <path d="M260.543 126.95L262.082 126.462L261.857 127.944L261.81 128.271L261.36 127.802L260.543 126.95Z"
            fill="#EFC8C4" />
        <path
            d="M261.36 127.802C261.387 127.768 261.42 127.74 261.458 127.72C261.48 127.706 261.506 127.698 261.532 127.698C261.559 127.698 261.585 127.706 261.607 127.72C261.628 127.746 261.646 127.774 261.661 127.805C261.682 127.84 261.71 127.87 261.744 127.892C261.778 127.915 261.817 127.93 261.857 127.935L261.809 128.252L261.36 127.802Z"
            fill="#727A9C" />
        <path
            d="M257.784 121.37C257.784 121.37 263.285 121.339 261.99 123.68C260.695 126.021 258.671 126.303 258.671 126.303L257.784 121.37Z"
            fill="#FFB0B1" />
        <path
            d="M223.567 16.2917H223.33C213.879 16.2917 205.52 21.2946 200.712 28.6769C195.904 21.2946 187.546 16.2917 178.094 16.2917H177.857C170.764 16.3594 163.984 19.2244 158.991 24.2642C153.998 29.304 151.195 36.1114 151.191 43.2069C151.191 52.0181 155.049 64.5205 162.571 74.8081C176.904 94.4108 200.712 111.561 200.712 111.561C200.712 111.561 224.521 94.4139 238.85 74.8081C246.375 64.5205 250.23 52.0181 250.23 43.2069C250.226 36.1119 247.423 29.305 242.431 24.2653C237.439 19.2256 230.66 16.3602 223.567 16.2917ZM220.169 76.3163C219.093 76.3122 218.043 75.9826 217.157 75.3708C216.271 74.759 215.591 73.8936 215.206 72.8881H209.555C209.183 72.8858 208.821 72.7673 208.52 72.5492C208.218 72.3311 207.992 72.0242 207.873 71.6715L206.138 66.4405L200.646 85.6376C200.539 86.0071 200.315 86.332 200.008 86.5634C199.7 86.7948 199.326 86.9202 198.942 86.9208H198.831C198.429 86.9014 198.047 86.7448 197.747 86.4772C197.447 86.2097 197.249 85.8473 197.184 85.4507L191.524 51.3972L187.387 71.5479C187.292 71.9307 187.072 72.2707 186.762 72.5136C186.451 72.7565 186.068 72.8884 185.674 72.8881H177.714C177.476 72.8982 177.238 72.8599 177.014 72.7756C176.791 72.6912 176.587 72.5625 176.414 72.3972C176.242 72.2318 176.105 72.0334 176.011 71.8136C175.917 71.5939 175.869 71.3575 175.869 71.1186C175.869 70.8797 175.917 70.6433 176.011 70.4235C176.105 70.2038 176.242 70.0053 176.414 69.84C176.587 69.6747 176.791 69.546 177.014 69.4616C177.238 69.3773 177.476 69.339 177.714 69.3491H184.28L190.14 42.2564C190.236 41.8559 190.468 41.5012 190.797 41.253C191.126 41.0048 191.53 40.8785 191.942 40.8957C192.353 40.9129 192.746 41.0726 193.053 41.3473C193.359 41.6221 193.561 41.995 193.624 42.4022L199.404 77.1401L204.326 59.9644C204.429 59.6027 204.645 59.2838 204.944 59.0554C205.242 58.827 205.607 58.7013 205.983 58.697H206.017C206.39 58.6972 206.752 58.8148 207.054 59.0333C207.355 59.2518 207.58 59.5599 207.696 59.9137L210.835 69.3586H215.136C215.442 68.4292 215.998 67.6024 216.744 66.9694C217.49 66.3364 218.396 65.9219 219.363 65.7716C220.329 65.6213 221.319 65.7411 222.221 66.1177C223.124 66.4943 223.905 67.1131 224.479 67.9057C225.052 68.6984 225.396 69.6342 225.471 70.6097C225.546 71.5852 225.351 72.5626 224.906 73.434C224.461 74.3054 223.784 75.0369 222.95 75.5477C222.116 76.0586 221.157 76.3289 220.178 76.329L220.169 76.3163Z"
            fill="#0ABAB5" />
    </g>
    <defs>
        <linearGradient id="paint0_linear" x1="112.861" y1="245.507" x2="112.861" y2="50.5448"
            gradientUnits="userSpaceOnUse">
            <stop stop-color="#808080" stop-opacity="0.25" />
            <stop offset="0.54" stop-color="#808080" stop-opacity="0.12" />
            <stop offset="1" stop-color="#808080" stop-opacity="0.1" />
        </linearGradient>
        <linearGradient id="paint1_linear" x1="70699.2" y1="147101" x2="70699.2" y2="47025.7"
            gradientUnits="userSpaceOnUse">
            <stop stop-color="#808080" stop-opacity="0.25" />
            <stop offset="0.54" stop-color="#808080" stop-opacity="0.12" />
            <stop offset="1" stop-color="#808080" stop-opacity="0.1" />
        </linearGradient>
        <clipPath id="clip0">
            <rect width="350" height="248" fill="white" />
        </clipPath>
    </defs>
</svg>