<svg width="350" height="248" fill="none" xmlns="http://www.w3.org/2000/svg"><g clip-path="url(#prefix__clip0)"><path opacity=".1" d="M116.361 247.861c17.044 0 30.862-2.22 30.862-4.959 0-2.738-13.818-4.958-30.862-4.958-17.045 0-30.863 2.22-30.863 4.958 0 2.739 13.818 4.959 30.863 4.959zM284.123 248c21.269 0 38.511-2.22 38.511-4.958 0-2.739-17.242-4.959-38.511-4.959-21.269 0-38.511 2.22-38.511 4.959 0 2.738 17.242 4.958 38.511 4.958zM4.384 107.154h32.145v43.828H6.736c-.08.45-.155.903-.238 1.356h30.03v35.346c-.054-.016-.102-.035-.153-.054a58.644 58.644 0 01-2.533-1.071l-.539-.244a63.643 63.643 0 01-2.534-1.267 52.696 52.696 0 01-13.512-10.354c-.107-.105-.208-.216-.316-.317a55.574 55.574 0 01-1.505-1.698l-.538-.634a55.915 55.915 0 01-1.675-2.167c-.08-.108-.156-.216-.238-.317a47.158 47.158 0 01-5.448-9.854c-.044-.104-.082-.218-.123-.316-.435-1.12-.82-2.25-1.156-3.391-.146-.478-.285-.95-.406-1.448a7.905 7.905 0 01-.117-.43c-1.8-7.025-2.011-14.321-2.011-21.567v-2.535c0-2.931.035-5.881.085-8.827 0-.764.032-1.524.048-2.291.044-1.945.107-3.891.19-5.836.019-.542.044-1.08.073-1.619 0-.311.015-.621.047-.931.076-1.128.14-2.247.216-3.362zM36.529 58.355H18.896c2.866-4.488 5.998-8.8 9.378-12.914a163.885 163.885 0 018.255-9.379v22.293zM36.529 59.71v46.088H4.485c0-.133.022-.27.032-.403a116.934 116.934 0 01.202-2.357c.041-.415.086-.922.133-1.381.048-.46.092-.925.146-1.385.054-.46.101-.919.158-1.375.057-.456.108-.919.168-1.375.048-.38.098-.757.15-1.137.072-.536.148-1.075.23-1.607 0-.079.022-.161.035-.237.578-3.897 1.366-7.76 2.36-11.571a85.6 85.6 0 013.975-11.723 88.015 88.015 0 015.98-11.52l18.475-.016zM44.203 107.151v43.831h68.658v-43.831H44.203zm0 45.184v37.64c.393.082.782.161 1.169.228.525.101 1.048.193 1.583.272.102.016.206.032.317.041a34.1 34.1 0 002.217.273c.25.025.504.048.757.066l.611.048c.333.025.662.044.989.054.202 0 .405.019.614.025h2.258c.273 0 .545 0 .814-.025h.02c.186 0 .376 0 .566-.025.053.003.106.003.159 0 .158 0 .316 0 .468-.023h.111l1.061-.082c.349-.032.7-.073 1.055-.111l.722-.085a63.217 63.217 0 008.694-1.851c6.405-1.787 12.67-4.287 19.07-6.118 8.277-2.36 17.421-3.52 25.418-.634v-29.693H44.203zm68.658-93.98V.003A88.237 88.237 0 0090.553 2.62C73.168 6.99 57.57 16.466 44.203 28.57v29.782h3.446v1.353h-3.446v46.093h68.658v-46.09H61.797v-1.353h51.064zm88.187-19.71c-4.301-.153-8.577-1.515-12.444-3.619-7.396-4.024-13.303-10.237-19.904-15.48C154.986 8.624 137.977 2.034 120.529.399v57.956h98.012l.244-.257-17.737-19.453zm8.929-1.585l9.467 10.392V34.337c-3.171.392-5.949 1.327-9.455 2.712l-.012.012zm9.467 162.261v-46.986h-20.173c-.054-.2-.108-.403-.171-.606.06.203.111.406.168.606h-78.727v33.98a66.525 66.525 0 012.217 1.73c.789.634 1.568 1.302 2.351 1.958l.788.653c.377.317.757.634 1.14.931.761.617 1.528 1.225 2.303 1.825.383.317.776.602 1.166.9a158.753 158.753 0 0019.52 12.772 185.54 185.54 0 004.621 2.474 193.52 193.52 0 003.123 1.565c1.571.767 3.154 1.507 4.751 2.218a174.397 174.397 0 0046.242 13.475c3.546.524 7.105.936 10.677 1.236v-28.734h.317l-.313.003zM120.541 59.708v46.09h98.915v-46.09h-98.915zm0 47.443v43.831h98.915v-43.831h-98.915zm106.593-72.873V48.91l12.083-13.263a132.3 132.3 0 00-12.083-1.384v.016zm0 72.889v43.815h96.207v-43.831l-96.207.016zm95.855 95.633l.339-50.465h-96.194v76.221c6.197.26 12.403.186 18.592-.222h.108a153.41 153.41 0 008.827-.811h.066a162.519 162.519 0 0045.356-12.106l22.906-12.617zm18.903-88.432a93.068 93.068 0 00-1.122-2.534 115.82 115.82 0 00-2.251-4.664h-7.507v43.812h18.979c-.01-12.408-3.149-25.081-8.09-36.63l-.009.016zm-10.88 37.982v43.407c5.346-5.126 9.863-10.991 13.116-17.695 3.911-8.073 5.701-16.815 5.847-25.718l-18.963.006zm0-57.955V105.8h6.803a123.658 123.658 0 00-6.793-11.422l-.01.016zm-65.246-51.518c-.501-.19-1.001-.383-1.505-.57a137.317 137.317 0 00-16.251-4.886l-18.491 20.3-.355.377.238.26h65.81a140.762 140.762 0 00-29.437-15.496l-.009.015zm31.375 16.846h-68.658l-1.349 1.236v44.839H323.353v-21.72a137.06 137.06 0 00-26.203-24.37l-.009.016z" fill="#0ABAB5"/><path opacity=".1" d="M36.529 82.957v22.841H4.485c0-.133.022-.27.032-.403a120.014 120.014 0 01.202-2.357c.041-.415.086-.922.133-1.381.048-.46.092-.925.146-1.385.054-.46.101-.919.158-1.375.057-.456.108-.919.168-1.375.048-.38.098-.757.15-1.138.072-.535.148-1.073.23-1.606 0-.079.022-.161.035-.238.578-3.896 1.366-7.759 2.36-11.57l28.43-.013zM4.384 107.154h32.145v43.828H6.736c-.08.45-.155.903-.238 1.356h30.03v35.346c-.054-.016-.102-.035-.153-.054a58.644 58.644 0 01-2.533-1.071l-.539-.244a63.643 63.643 0 01-2.534-1.267 52.696 52.696 0 01-13.512-10.354c-.107-.105-.208-.216-.316-.317a55.574 55.574 0 01-1.505-1.698l-.538-.634a55.915 55.915 0 01-1.675-2.167c-.08-.108-.156-.216-.238-.317a47.158 47.158 0 01-5.448-9.854c-.044-.104-.082-.218-.123-.316-.435-1.12-.82-2.25-1.156-3.391-.146-.478-.285-.95-.406-1.448a7.905 7.905 0 01-.117-.43c-1.8-7.025-2.011-14.321-2.011-21.567v-2.535c0-2.931.035-5.881.085-8.827 0-.764.032-1.524.048-2.291.044-1.945.107-3.891.19-5.836.019-.542.044-1.08.073-1.619 0-.311.015-.621.047-.931.076-1.128.14-2.247.216-3.362zM68.373 66.307v39.491h-24.17v-39.49h3.446V52.936h14.145v13.37h6.579zM68.373 107.151H44.206v43.828h24.167v-43.828zM44.203 152.338h24.17v36.436a63.062 63.062 0 01-8.695 1.847l-.722.089c-.355.041-.706.076-1.055.111-.348.034-.709.06-1.06.082h-.111c-.152 0-.317.019-.466.022h-.162c-.19 0-.38.019-.57.026-.269.015-.538.019-.814.022H52.476l-.611-.022c-.317 0-.66-.035-.989-.058l-.608-.044-.757-.07a31.478 31.478 0 01-1.583-.18l-.634-.089-.317-.044a47.35 47.35 0 01-1.583-.273c-.39-.066-.776-.149-1.169-.228l-.022-37.627zM219.456 61.644h-19.928v44.151h19.928V61.644zM219.46 107.151v43.831h-98.919v-18.906h52.689v11.153h26.298v-36.078h19.932zM219.773 199.331h-.317v28.753a175.887 175.887 0 01-10.674-1.233 174.44 174.44 0 01-46.261-13.503 166.65 166.65 0 01-12.492-6.267 159.364 159.364 0 01-19.523-12.772 169.485 169.485 0 01-4.602-3.656c-1.049-.865-2.091-1.752-3.146-2.614a67.977 67.977 0 00-2.217-1.733v-33.968h78.724a33.213 33.213 0 00-.165-.605c.06.199.117.402.171.605h20.185v46.974c.108.003.212.013.317.019zM271.432 58.355h-12.986v-4.037h5.821V42.294c.505.184 1.008.373 1.508.568v11.456h5.657v4.037zM302.718 105.798h-63.751l.022.016-.028-.016h-11.827V61.647h3.351V94.28h15.314V74.954h12.65V59.71h12.986v15.255h12.65v19.328h18.633v11.504zM227.134 107.151v43.831h75.584v-43.831h-75.584zm96.102 95.424l.105-34.693h-20.623v-15.525h-75.584v76.199c6.197.26 12.403.186 18.592-.222h.108a153.41 153.41 0 008.827-.811h.066a162.519 162.519 0 0045.356-12.106M332.355 152.338h17.632c-.155 8.9-1.941 17.641-5.85 25.714-3.253 6.708-7.772 12.572-13.112 17.695v-27.881h1.33v-15.528zM349.997 150.982h-17.642v-36.63h9.546c4.941 11.549 8.08 24.222 8.096 36.63z" fill="#0ABAB5"/><path opacity=".1" d="M219.459 73.918h-10.677V87.76h10.677V73.918zM219.459 102.611h-10.677v3.187h10.677v-3.187zM219.459 107.151h-10.677v9.299h10.677v-9.299zM219.459 131.303h-10.677v13.843h10.677v-13.843zM219.459 159.996h-10.677v13.842h10.677v-13.842zM219.456 199.312c.108 0 .213 0 .317.019h-.317v3.216h-10.674v-13.859h10.674v10.624zM219.456 217.375v10.693a175.887 175.887 0 01-10.674-1.233v-9.46h10.674zM166.299 149.965h-45.758v1.017h45.758v-1.017zM166.299 152.335h-45.758v3.897h45.758v-3.897zM166.299 169.007h-45.758v6.267h45.758v-6.267zM166.296 188.048v6.267h-35.79a156.308 156.308 0 01-4.606-3.656c-1.048-.865-2.087-1.752-3.145-2.611h43.541zM166.296 207.087v6.261h-3.778a168.365 168.365 0 01-12.489-6.271l16.267.01zM254.737 111.399h-9.008v9.011h9.008v-9.011zM59.7 69.415h-9.007v9.011H59.7v-9.01zM59.7 90.346h-9.007v9.01H59.7v-9.01zM59.7 111.276h-9.007v9.011H59.7v-9.011zM59.7 132.203h-9.007v9.011H59.7v-9.011zM59.7 153.133h-9.007v9.011H59.7v-9.011zM59.7 174.063h-9.007v9.011H59.7v-9.011zM289.124 111.399h-9.007v9.011h9.007v-9.011zM254.737 133.625h-9.008v9.011h9.008v-9.011zM289.124 133.625h-9.007v9.011h9.007v-9.011zM254.737 155.848h-9.008v9.011h9.008v-9.011zM289.124 155.848h-9.007v9.011h9.007v-9.011zM254.737 178.074h-9.008v9.011h9.008v-9.011zM289.124 178.074h-9.007v9.011h9.007v-9.011zM254.737 200.3h-9.008v9.011h9.008V200.3zM289.124 200.3h-9.007v9.011h9.007V200.3zM245.729 228.334v-5.811h9.005v4.984l-9.005.827zM5.701 94.534v5.155H36.53v-5.155H5.7zm3.072 4.832H6.26V94.85h2.533l-.019 4.515zm3.07 0H9.309V94.85h2.534v4.515zm3.062 0h-2.534V94.85h2.534v4.515zm3.07 0h-2.531V94.85h2.534l-.004 4.515zm3.065 0h-2.533V94.85h2.533v4.515zm3.07 0h-2.534V94.85h2.534v4.515zm3.069 0h-2.534V94.85h2.534v4.515zm3.066 0H27.71V94.85h2.534v4.515zm3.066 0h-2.534V94.85h2.534v4.515zm3.066 0h-2.534V94.85h2.533v4.515zM5.701 109.533v5.155H36.53v-5.155H5.7zm3.072 4.829H6.26v-4.502h2.533l-.019 4.502zm3.07 0H9.309v-4.502h2.534v4.502zm3.062 0h-2.534v-4.502h2.534v4.502zm3.07 0h-2.531v-4.502h2.534l-.004 4.502zm3.065 0h-2.533v-4.502h2.533v4.502zm3.07 0h-2.534v-4.502h2.534v4.502zm3.069 0h-2.534v-4.502h2.534v4.502zm3.066 0H27.71v-4.502h2.534v4.502zm3.066 0h-2.534v-4.502h2.534v4.502zm3.066 0h-2.534v-4.502h2.533v4.502zM5.701 124.539v5.164H36.53v-5.164H5.7zm3.072 4.828H6.26v-4.505h2.533l-.019 4.505zm3.07 0H9.309v-4.505h2.534v4.505zm3.062 0h-2.534v-4.505h2.534v4.505zm3.07 0h-2.531v-4.505h2.534l-.004 4.505zm3.065 0h-2.533v-4.505h2.533v4.505zm3.07 0h-2.534v-4.505h2.534v4.505zm3.069 0h-2.534v-4.505h2.534v4.505zm3.066 0H27.71v-4.505h2.534v4.505zm3.066 0h-2.534v-4.505h2.534v4.505zm3.066 0h-2.534v-4.505h2.533v4.505zM5.701 139.544v5.149H36.53v-5.149H5.7zm3.072 4.829H6.26v-4.509h2.533l-.019 4.509zm3.07 0H9.309v-4.509h2.534v4.509zm3.062 0h-2.534v-4.509h2.534v4.509zm3.07 0h-2.531v-4.509h2.534l-.004 4.509zm3.065 0h-2.533v-4.509h2.533v4.509zm3.07 0h-2.534v-4.509h2.534v4.509zm3.069 0h-2.534v-4.509h2.534v4.509zm3.066 0H27.71v-4.509h2.534v4.509zm3.066 0h-2.534v-4.509h2.534v4.509zm3.066 0h-2.534v-4.509h2.533v4.509zM5.834 154.546c.124.485.263.97.409 1.448v-1.125h2.534v4.506H7.42c.041.104.082.218.124.317h28.984v-5.146H5.834zm6.018 4.829H9.318v-4.506h2.534v4.506zm3.063 0H12.38v-4.506h2.534v4.506zm3.069 0h-2.54v-4.506h2.534l.006 4.506zm3.066 0h-2.534v-4.506h2.534v4.506zm3.069 0h-2.534v-4.506h2.534v4.506zm3.07 0h-2.535v-4.506h2.534v4.506zm3.065 0H27.72v-4.506h2.534v4.506zm3.066 0h-2.534v-4.506h2.534v4.506zm3.066 0h-2.534v-4.506h2.534v4.506zM12.992 169.551c.08.102.155.216.238.317h1.675v2.164c.18.216.358.431.542.634v-2.81h2.534v4.521h-1.027c.102.104.2.215.317.317h19.267v-5.143H12.992zm8.048 4.826h-2.534v-4.502h2.534v4.502zm3.07 0h-2.534v-4.502h2.534v4.502zm3.069 0h-2.534v-4.502h2.534v4.502zm3.066 0H27.71v-4.502h2.534v4.502zm3.065 0h-2.533v-4.502h2.533v4.502zm3.066 0h-2.533v-4.502h2.533v4.502zM29.902 184.554c.289.164.583.316.881.481v-.158h2.534v1.426l.538.25v-1.676h2.534v2.74a.7.7 0 00.152.057v-3.12h-6.638zM238.967 105.798h.019-.019zm-19.511 93.511h.317-.317zM199.1 151.73c.06.202.111.405.168.605-.051-.2-.105-.403-.168-.605zm39.867-45.942h.019-.019zM47.662 58.345v1.353H61.81v-1.353H47.662zM219.456 199.31h.317-.317zM199.1 151.73c.06.202.111.405.168.605-.051-.2-.105-.403-.168-.605zm39.867-45.942h.019-.019zm-19.511 93.511h.317-.317zM199.1 151.73c.06.202.111.405.168.605-.051-.2-.105-.403-.168-.605z" fill="#0ABAB5"/><path d="M146.203 120.293s-1.248-.174-1.248-1.993c0-1.818-.893-5.215-.893-5.215 0-.016-.773-5.915-1.84-6.853-1.068-.938-2.439-6.445-2.439-6.445s-.235-2.987-.713-3.63c-.478-.644-1.124-2.218-2.078-4.465-.953-2.246-4.928-3.802-4.928-3.802s-7.187-4.17-9.223-5.528a3.122 3.122 0 01-.516-.39c-.355-.466-1.901-.475-1.901-.475-.161-1.02-.317-2.193-.367-3.254 0-.114 0-.228-.016-.343a10.96 10.96 0 004.817-5.962c.038-.12.07-.248.105-.368a1.038 1.038 0 00.618-.558c.183-.408.186-.887.414-1.267.267-.45.773-.69 1.172-1.03 1.008-.855 1.267-2.297 1.22-3.608-.032-1.062-.203-2.133-.136-3.188l.019-.266c.019-.158.041-.317.069-.469.155-.786.494-1.527.684-2.306.19-.78.209-1.657-.234-2.33-.649-.985-2.002-1.18-3.189-1.282-1.347-.114-2.55.035-3.412-1.084a12.133 12.133 0 00-1.355-1.638c-.178-.165-1.901-1.217-1.901-1.286a7.696 7.696 0 00-5.368-.412c-.893.26-1.736.684-2.642.897-1.954.462-4.203-.038-5.862 1.08-.925.634-1.48 1.641-1.999 2.623a201.28 201.28 0 01-1.286 2.424c-.7 1.328-1.413 2.677-1.707 4.148-.062.32-.1.643-.114.969v.516c0 .111 0 .219.019.317.019.099.016.13.025.197.01.066.026.215.045.317.019.1.057.278.095.418.015.06.038.117.057.174.031.108.069.212.11.317.023.054.045.11.07.165.048.11.105.218.162.316.025.045.044.086.069.127.089.148.186.29.292.425.678.846 1.675 1.384 2.413 2.176v.355a10.847 10.847 0 004.935 8.856c0 .12.016.244.022.364a18.1 18.1 0 01-.035 2.823 1.33 1.33 0 00-1.051-.469 1.518 1.518 0 00-.406.035l-.028-.022v.028c-.697.172-1.555.897-2.376 2.96 0 0-2.496 2.813-4.396 2.696-1.9-.117-6.712 2.927-6.712 2.927s-4.693 3.049-5.7 6.154a43.406 43.406 0 01-2.021 5.158l-5.803 11.96-1.07 9.489s.592 4.221.475 4.864c-.117.643 2.435 6.444 2.435 6.444s8.435 14.825 11.88 15.585l.248-.174c.147.077.304.136.466.174l.709-.5a7.737 7.737 0 01-.054 1.673c-.475 1.463.178 11.016 1.007 12.889.83 1.872.536 26.424.536 26.424l-.118 2.167s0 .069.029.19l-.029.513.086.045c.089.687.06 1.384-.086 2.062-.297.951-.418 3.637-.418 3.637s-2.372 15.17-1.248 18.218c1.125 3.048 2.081 6.388 2.081 6.388s1.188 3.802.057 4.451c-1.13.65-4.345 1.74-3.683 3.324.602 1.464 2.885 5.386 3.224 5.96l-.028.301-.466 5.047c.075.666.256 1.317.535 1.926.51 1.1 1.502 2.24 3.386 2.117.317-.022.684-.06 1.039-.108 3.449-.463 7.697-2.002 7.697-2.002a3.165 3.165 0 01-.602-.498 1.73 1.73 0 01-.529-1.267c.051-.919-1.669-5.298-2.097-6.375a10.543 10.543 0 01-.101-.244s3.921-4.1 3.268-7.734c0 0-4.339-2.535-2.91-3.925 1.428-1.391 3.981-5.387 3.981-5.387s.117-14.938 0-17.169a18.5 18.5 0 01.218-4.635c.048-.232.105-.457.165-.678 1.976.295 3.97.446 5.967.453.729 0 1.47 0 2.218-.045 0 .212.009.44.028.685.165 3.7.472 10.189.722 12.6.355 3.457 2.315 12.772 2.315 12.772s-3.74 2.402.653 8.32c0 0 0 2.145-.291 2.456a26.68 26.68 0 00-.751 3.092c-.184 1.115-.26 2.243.038 2.829.713 1.401 4.988 1.287 4.988 1.287l.105-.019a6.125 6.125 0 014.526 1.365c1.625 1.305 7.792.732 11.13.317 1.308-.165 2.182-.317 2.182-.317.043-.148.058-.303.045-.456-.035-.821-.678-2.62-5.036-4.227 0 0-4.099-2.756-4.042-5.158H134.059c.346-.019.567 0 .567 0s-1.605-5.861-.95-6.337c.656-.475-1.308-6.97-1.308-6.97s-1.124-10.899-1.184-11.663a6.626 6.626 0 01.294-1.932l-.294-5.976s-.058-1.986 0-2.633a13.242 13.242 0 00-.137-1.676c-.028-.222-.057-.453-.088-.681 1.536-.39 2.533-.751 2.533-.751l-.177-20.8c1.305-2.535 1.546-8.095 1.539-12.04 0-2.535-.114-4.41-.114-4.41l1.784-2.912s.411-3.485-.241-4.249c-.288-.345-.158-.703.079-.998.123-.098.254-.187.39-.266 0 0-.019-.028-.042-.07.125-.104.257-.198.396-.282 0 0-.633-.982-.066-1.397.532.361 1.007.634 1.368.856a4.79 4.79 0 01-.051.364l.152-.317.561.317s2.794-5.567 2.733-6.387c-.06-.821 1.901-4.278 1.901-4.278s.237-1.815 1.308-2.576c1.071-.76.83-6.27.83-6.27s.298-2.87 1.01-4.043c.713-1.172-.649-2.753-.649-2.753zm-53.452-2.443l.054 1.328-.545-.878.491-.45z" fill="url(#prefix__paint0_linear)"/><path d="M139.222 144.195l-.684 2.915s-5.479-2.798-6.468-6.353c-.988-3.554 1.654-4.904 1.654-4.904l5.105 2.164.393 6.178z" fill="#fff"/><path opacity=".1" d="M139.222 144.195l-.684 2.915s-5.479-2.798-6.468-6.353c-.988-3.554 1.654-4.904 1.654-4.904l5.105 2.164.393 6.178z" fill="#000"/><path d="M108.471 243.399s-5.068 1.863-8.552 2.098c-1.85.124-2.822-1.011-3.322-2.104a6.358 6.358 0 01-.523-1.917l.453-5.022.24-2.674 7.402-1.923 1.049 3.207.098.244c.421 1.07 2.109 5.427 2.059 6.336a1.737 1.737 0 00.519 1.252c.17.191.364.361.577.503zM143.086 240.846a1.26 1.26 0 01-.044.453s-10.839 1.809-13.056 0a5.855 5.855 0 00-4.561-1.337s-4.193.114-4.893-1.267c-.292-.58-.215-1.705-.035-2.814.184-1.039.43-2.066.735-3.076l.168-.134.997-.801 11.681-.345h.089c-.057 2.388 3.966 5.129 3.966 5.129 4.272 1.584 4.903 3.374 4.953 4.192z" fill="#fff"/><path opacity=".1" d="M143.086 240.846c.011.152-.005.306-.047.453 0 0-10.836 1.809-13.053 0a5.867 5.867 0 00-4.557-1.337s-4.197.114-4.894-1.267c-.291-.583-.219-1.705-.038-2.814 1.615.162 4.165.564 5.166 1.524 1.514 1.461 4.079 2.918 5.654 3.032 1.232.079 8.602.314 11.769.409zM108.471 243.4s-5.068 1.863-8.552 2.097c-1.85.124-2.822-1.011-3.32-2.107 1.29.434 3.08.89 4.02.472 1.115-.494 5.068-.814 7.285-.95.169.184.359.348.567.488z" fill="#000"/><path d="M115.99 93.267c-4.181-1.626-9.559-6.996-8.216-9.505a5.64 5.64 0 00.523-2.015c.086-.948.099-1.902.038-2.852a39.293 39.293 0 00-.561-4.638s13.052.294 12.292 2.218c-.221.564-.256 1.543-.196 2.639.06 1.096.218 2.335.383 3.384.228 1.438.456 2.534.456 2.534s-.798 1.119-1.267 1.179c-.468.06 2.547 9.372-3.452 7.056z" fill="#CF6F80"/><path opacity=".1" d="M105.307 235.308l-.099.107c-3.902-4.721-8.621 1.163-8.621 1.163l-.07-.124.241-2.674 7.402-1.923 1.048 3.207.099.244zM134.17 231.857s-2.85-.06-4.371 1.283c-1.52 1.344-8.868.292-8.551 0 .094-.144.15-.309.164-.481l.998-.802 11.681-.345c.044.212.079.345.079.345z" fill="#000"/><path d="M110.162 194.784a8.852 8.852 0 00-.481 1.626 18.611 18.611 0 00-.219 4.613c.117 2.218 0 17.08 0 17.08s-2.505 3.964-3.902 5.361c-1.397 1.397 2.851 3.907 2.851 3.907.633 3.612-3.206 7.693-3.206 7.693-3.902-4.721-8.621 1.165-8.621 1.165s-2.566-4.435-3.206-6.019c-.64-1.585 2.506-2.681 3.611-3.324 1.106-.643-.054-4.436-.054-4.436s-.934-3.323-2.043-6.355c-1.108-3.033 1.223-18.127 1.223-18.127s.12-2.68.409-3.615a6.048 6.048 0 00.085-2.053 14.187 14.187 0 00-.057-.554 2.554 2.554 0 00-.028-.19l.044-.076 1.584-2.953s12.77 4.397 12.01 6.257zM134.17 231.509s-2.85-.061-4.371 1.267c-1.52 1.328-8.868.291-8.551 0 .316-.292.291-2.449.291-2.449-4.311-5.887-.633-8.276-.633-8.276s-1.926-9.267-2.274-12.705c-.244-2.402-.545-8.856-.707-12.54a598.149 598.149 0 01-.111-2.674l3.522-.71.453-.092 8.495-1.705s.234 1.585.393 2.88c.079.554.123 1.111.133 1.67-.057.634 0 2.617 0 2.617l.288 5.947a6.776 6.776 0 00-.288 1.923c.057.758 1.162 11.6 1.162 11.6s1.923 6.47 1.267 6.935c-.656.466.931 6.312.931 6.312z" fill="#0ABAB5"/><path opacity=".1" d="M120.066 76.475c-.221.564-.256 1.543-.196 2.639a10.845 10.845 0 01-11.535-.216 39.135 39.135 0 00-.561-4.641s13.052.288 12.292 2.218z" fill="#000"/><path d="M125.112 69.472a10.75 10.75 0 01-.532 3.362 10.838 10.838 0 01-21.139-3.102v-.26a10.848 10.848 0 016.646-10.184 10.842 10.842 0 0111.92 2.399 10.846 10.846 0 013.108 7.785h-.003z" fill="#CF6F80"/><path opacity=".1" d="M115.99 93.267c-4.181-1.625-9.559-6.996-8.216-9.505a5.64 5.64 0 00.523-2.015l5.723 4.705 3.541 2.905 2.692-6.856c.228 1.438.456 2.534.456 2.534s-.798 1.119-1.267 1.18c-.468.06 2.547 9.368-3.452 7.052z" fill="#000"/><path d="M130.791 114.061l-4.78 80.318-6.233.408-16.141-46.571 2.648-55.291.558-11.682 7.177 5.896 3.544 2.906 2.771-7.056 5.154 4.493 5.302 26.579z" fill="#0ABAB5"/><path opacity=".1" d="M110.162 194.784a8.852 8.852 0 00-.481 1.626 45.924 45.924 0 01-13.069-4.084l-.085-.045.028-.51.016-.266 1.584-2.953s12.767 4.373 12.007 6.232zM121.409 196.422a31.93 31.93 0 01-3.503.4c-.07-1.585-.111-2.675-.111-2.675l3.522-.709.092 2.984zM130.658 194.521c-2.252.587-5.73 1.246-8.843.834l-.045-2.009 8.495-1.705s.234 1.569.393 2.88z" fill="#000"/><path opacity=".1" d="M121.758 195.722c-12.986 2.218-24.88-4.141-24.88-4.141l.114-2.154s.295-24.425-.522-26.298c-.817-1.872-1.454-11.368-.992-12.825.463-1.458-1.688-23.313-1.688-23.313l-.348-8.872-12.752-5.167 5.701-11.888a42.892 42.892 0 001.983-5.132c.992-3.087 5.594-6.119 5.594-6.119s4.719-3.029 6.584-2.915c1.866.115 4.311-2.68 4.311-2.68 1.806-4.603 3.44-2.519 3.44-2.519 0 .219 0 0-.089.681-.633 5.054 10.243 21.022 10.398 21.304l1.036 25.24 1.049 31.94 1.061 34.858z" fill="#000"/><path d="M121.409 195.722c-12.986 2.218-24.882-4.141-24.882-4.141l.117-2.154s.295-24.425-.526-26.298c-.82-1.872-1.453-11.368-.988-12.825.466-1.458-1.688-23.313-1.688-23.313l-.352-8.871-12.758-5.187 5.702-11.888a43.558 43.558 0 001.982-5.133c.988-3.085 5.594-6.118 5.594-6.118s4.719-3.028 6.581-2.914c1.863.114 4.311-2.68 4.311-2.68 1.809-4.605 3.801-2.52 3.801-2.52 0 .219-.19.317-.089.681 1.394 4.902 9.895 21.023 10.05 21.305l1.048 25.239 1.049 31.94 1.048 34.877z" fill="#fff"/><path opacity=".1" d="M117.909 104.385c-1.396-.583-8.795-9.033-8.795-9.033v-1.923c-.269-.634-1.869-.248-3.168.196l.558-11.682.633.526c1.388 4.899 10.611 21.634 10.772 21.916z" fill="#000"/><path d="M118.261 103.685c-1.4-.583-8.799-9.034-8.799-9.034v-1.923c-.269-.633-1.869-.247-3.167.197l.56-11.682.634.526c1.39 4.898 10.617 21.637 10.772 21.916z" fill="#fff"/><path opacity=".1" d="M96.878 145.827c.175 0 9.03-.932 9.03-.932s5.363 10.548 5.011 13.114c-.351 2.566-.988 4.838-3.145 4.436-2.157-.403-11.608.317-11.608.317l.712-16.935z" fill="#000"/><path d="M96.527 145.127c.174 0 9.03-.932 9.03-.932s5.359 10.551 5.011 13.114c-.349 2.563-.992 4.838-3.146 4.436-2.153-.403-11.608.317-11.608.317l.713-16.935z" fill="#fff"/><path d="M103.2 140.174s8.128 4.37 8.302 5.704c.174 1.333-4.137-.583-5.068-.815a11.65 11.65 0 00-1.865-.291l-6.212.168 4.843-4.766z" fill="#CF6F80"/><path opacity=".1" d="M115.641 104.93a.856.856 0 100-1.711.856.856 0 000 1.711z" fill="#000"/><path d="M115.641 104.581a.855.855 0 10.001-1.71.855.855 0 00-.001 1.71z" fill="#3F3D56"/><path opacity=".1" d="M117.216 141.961a.855.855 0 100-1.71.855.855 0 000 1.71z" fill="#000"/><path d="M117.216 141.61a.855.855 0 100-1.71.855.855 0 000 1.71z" fill="#3F3D56"/><path opacity=".1" d="M116.494 123.446a.855.855 0 100-1.71.855.855 0 000 1.71z" fill="#000"/><path d="M116.494 123.097a.855.855 0 100-1.71.855.855 0 000 1.71z" fill="#3F3D56"/><path d="M136.207 144.594s.583.875 0 1.284c-.583.408.057 1.397.057 1.397s-1.454.852-.814 1.619.234 4.23.234 4.23l-1.748 2.895s.104 1.867.111 4.389c0 3.935-.231 9.467-1.511 11.989l.177 20.692s-6.122 2.237-11.247 1.556l-.76-33.205s1.109-18.829 1.517-22.441c.239-1.875.337-3.766.292-5.656 0 0-.175-5.652-.761-8.275 0 0-.633-11.365-.696-14.511-.029-1.505.05-5.897.139-10.073.098-4.565.209-8.87.209-8.87l-1.156-9.151s1.156-.117 1.504.348c.156.146.326.277.507.39 1.996 1.35 9.046 5.5 9.046 5.5s3.902 1.553 4.836 3.777c.935 2.224 1.584 3.802 2.037 4.436.453.633.7 3.612.7 3.612s1.343 5.481 2.391 6.409c1.049.929 1.815 6.834 1.815 6.834l-9.264 7.288s-.814 12.122-.988 12.591c-.175.469 3.373 10.946 3.373 10.946z" fill="#fff"/><path d="M136.558 144.594s.58.875 0 1.284c-.579.408.054 1.397.054 1.397s-1.444.862-.811 1.628c.634.767.235 4.23.235 4.23l-1.749 2.896s.105 1.866.114 4.388c0 3.935-.231 9.467-1.51 11.989l.174 20.693s-6.132 2.237-11.25 1.555l-.757-33.204s1.108-18.829 1.517-22.441a37.39 37.39 0 00.288-5.656s-.174-5.652-.757-8.276c0 0-.633-11.365-.7-14.511-.028-1.505.054-5.896.139-10.072.099-4.566.209-8.871.209-8.871l-1.526-9.274s1.526 0 1.878.472c.155.148.324.278.507.39 1.995 1.35 9.049 5.5 9.049 5.5s3.899 1.552 4.833 3.777c.934 2.224 1.584 3.802 2.04 4.435.456.634.697 3.612.697 3.612s1.343 5.481 2.391 6.41c1.048.928 1.805 6.821 1.805 6.821l-9.264 7.288s-.814 12.122-.991 12.591c-.178.468 3.385 10.949 3.385 10.949z" fill="#fff"/><path opacity=".1" d="M125.463 94.312l.837 2.44-4.403 4.436c.098-4.563.209-8.872.209-8.872l-1.527-9.273s1.527 0 1.879.472c.154.147.324.276.506.386l3.744 10.804-1.245-.393z" fill="#000"/><path d="M125.112 93.612l.839 2.44-4.402 4.436c.098-4.566.209-8.872.209-8.872l-1.53-9.273s1.53 0 1.878.472c.155.146.325.277.507.39l3.747 10.8-1.248-.393z" fill="#fff"/><path opacity=".1" d="M125.112 69.473a10.75 10.75 0 01-.532 3.361.455.455 0 01-.342-.085c-.083-2.852-1.486-5.53-3.212-7.807a8.208 8.208 0 00-1.742-1.806 3.408 3.408 0 00-2.363-.669c-.95.13-1.789.777-2.749.859-1.267.105-2.401-.773-3.658-.818a3.596 3.596 0 00-2.689 1.249 7.38 7.38 0 00-1.442 2.674 15.64 15.64 0 00-.804 4.613c-.016.887-.101 2-.925 2.323a4.727 4.727 0 00-1.194-3.616l-.019-.019v-.26a10.848 10.848 0 016.646-10.184 10.842 10.842 0 0111.92 2.399 10.846 10.846 0 013.108 7.786h-.003z" fill="#000"/><path d="M118.764 52.259a7.46 7.46 0 00-5.264-.412c-.877.26-1.704.681-2.594.893-1.9.46-4.117-.038-5.748 1.075-.906.633-1.451 1.634-1.958 2.607l-1.267 2.414c-.69 1.322-1.387 2.665-1.675 4.12-.288 1.453-.114 3.082.808 4.251.671.852 1.662 1.388 2.391 2.19a4.76 4.76 0 011.191 3.611c.826-.316.906-1.432.925-2.319a15.64 15.64 0 01.804-4.613 7.356 7.356 0 011.441-2.674 3.607 3.607 0 012.689-1.248c1.267.044 2.404.918 3.659.814.95-.08 1.792-.729 2.749-.856a3.396 3.396 0 012.363.669 8.112 8.112 0 011.738 1.806c1.73 2.278 3.133 4.949 3.215 7.807.358.263.874-.08 1.052-.485.177-.406.183-.88.408-1.267.26-.447.757-.685 1.147-1.02.988-.853 1.235-2.288 1.197-3.59-.038-1.302-.291-2.624-.044-3.904.149-.785.484-1.52.668-2.297.184-.776.206-1.647-.228-2.316-.633-.982-1.967-1.175-3.129-1.267-1.321-.114-2.502.031-3.345-1.08-.395-.581-.84-1.126-1.33-1.63-.168-.164-1.863-1.21-1.863-1.28z" fill="#512E4E"/><path opacity=".1" d="M84.339 119.073l-3.31-6.121-1.048 9.445s.583 4.195.465 4.838c-.117.643 2.389 6.409 2.389 6.409S91.11 148.39 94.49 149.15l11.418-8.161-3.028-3.847s-1.048-.408-1.311 0c0 0-5.622-9.676-6.205-10.376-.582-.7-.468-2.097-.468-2.097s-.874-.932-.583-1.806c.291-.875-1.688-3.907-1.688-3.907l1.805-1.689-10.091 1.806z" fill="#000"/><path d="M81.203 112.255l-.874.697-1.048 9.445s.583 4.195.465 4.838c-.117.643 2.392 6.409 2.392 6.409S90.41 148.39 93.79 149.15l11.422-8.161-3.031-3.847s-1.049-.408-1.312 0c0 0-5.622-9.676-6.204-10.376-.583-.7-.466-2.098-.466-2.098s-.874-.931-.583-1.805c.291-.875-1.691-3.907-1.691-3.907l1.805-1.689-12.527-5.012z" fill="#fff"/><path opacity=".1" d="M135.45 149.255c.633.77.234 4.227.234 4.227l-1.748 2.895s.104 1.87.111 4.389l-2.94.918a1.743 1.743 0 01-2.264-1.72l.507-16.352 6.857 2.623c-.583.406.057 1.401.057 1.401s-1.454.849-.814 1.619z" fill="#000"/><path d="M135.801 148.903c.634.77.235 4.23.235 4.23l-1.749 2.896s.105 1.866.114 4.388l-2.993.935a1.71 1.71 0 01-2.217-1.686l.51-16.402 6.861 2.623c-.586.406.053 1.397.053 1.397s-1.447.853-.814 1.619z" fill="#fff"/><path d="M138.072 141.109s-.465 2.975-1.631 3.149c-1.165.175-1.688 4.813-2.85 4.648-1.163-.164-.393-4.312-.352-5.116.041-.805-1.267-4.138-.288-4.896.979-.757 4.076 0 4.076 0l1.045 2.215z" fill="#CF6F80"/><path opacity=".1" d="M140.552 118.199l2.198-4.436s.875 3.381.875 5.187c0 1.806 1.222 1.983 1.222 1.983s1.34 1.584.634 2.737c-.707 1.154-.992 4.024-.992 4.024s.232 5.478-.817 6.236c-1.048.757-1.267 2.566-1.267 2.566s-1.926 3.438-1.865 4.255c.06.817-2.68 6.353-2.68 6.353s1.34-6.879-6.467-9.851c0 0-.061-2.335.522-2.975.583-.64 1.492-.931.922-4.166-.57-3.235-.165-7.101-.165-7.877 0-.776 1.748-5.617 1.748-5.617l6.132 1.581z" fill="#000"/><path d="M141.503 113.129l1.919.634s.877 3.381.877 5.187c0 1.806 1.223 1.983 1.223 1.983s1.34 1.584.633 2.737c-.706 1.154-.988 4.024-.988 4.024s.231 5.478-.817 6.236c-1.048.757-1.283 2.566-1.283 2.566s-1.922 3.438-1.862 4.255c.06.818-2.683 6.353-2.683 6.353s1.343-6.879-6.467-9.851c0 0-.058-2.335.525-2.975.583-.64 1.492-.931.922-4.166-.57-3.235-.165-7.101-.165-7.877 0-.776 1.749-5.617 1.749-5.617l6.417-3.489z" fill="#fff"/><path opacity=".1" d="M99.108 228.099s3.06-1.923 5.068-.525c2.008 1.397-5.068.525-5.068.525zM122.882 222.153s2.708-.349 4.982 2.1-4.982-2.1-4.982-2.1z" fill="#000"/><g opacity=".1" fill="#000"><path opacity=".1" d="M126.844 68.928c-.389.335-.89.576-1.15 1.023-.221.384-.228.856-.405 1.267-.177.412-.694.748-1.052.488-.082-2.851-1.488-5.528-3.214-7.81a8.14 8.14 0 00-1.739-1.806 3.405 3.405 0 00-2.366-.668c-.95.13-1.787.776-2.746.855-1.267.108-2.404-.77-3.662-.814a3.58 3.58 0 00-2.685 1.252 7.327 7.327 0 00-1.442 2.67 15.673 15.673 0 00-.804 4.614c-.019.884-.101 1.986-.919 2.316.019.234.019.469 0 .703.824-.317.906-1.432.925-2.32.036-1.569.307-3.124.805-4.612a7.356 7.356 0 011.441-2.674 3.59 3.59 0 012.686-1.249c1.267.045 2.407.92 3.661.815.95-.08 1.793-.73 2.746-.856a3.404 3.404 0 012.366.669 8.117 8.117 0 011.739 1.806c1.726 2.278 3.132 4.949 3.215 7.806.358.263.874-.079 1.051-.484.178-.406.184-.881.406-1.268.26-.447.76-.684 1.15-1.02.988-.852 1.235-2.287 1.197-3.59v-.12c-.06 1.128-.361 2.278-1.204 3.007zM103.463 68.703c-.728-.802-1.723-1.337-2.391-2.187a4.641 4.641 0 01-.922-2.594 4.879 4.879 0 00.922 3.291c.668.853 1.663 1.388 2.391 2.19.7.784 1.12 1.778 1.194 2.826a4.748 4.748 0 00-1.194-3.526zM128.665 59.137c-.186.777-.519 1.515-.671 2.297a7.31 7.31 0 00-.098 1.585c.01-.302.043-.603.098-.9.152-.786.485-1.521.671-2.297a3.89 3.89 0 00.105-1.312c-.02.212-.055.421-.105.627z"/></g><path opacity=".1" d="M42.04 240.982c17.044 0 30.862-2.22 30.862-4.958 0-2.739-13.818-4.959-30.862-4.959-17.045 0-30.863 2.22-30.863 4.959 0 2.738 13.818 4.958 30.863 4.958z" fill="#0ABAB5"/><path d="M43.034 141.036h-1.986v44.728h1.986v-44.728z" fill="#535461"/><path d="M55.513 185.628l-.123 2.015-.178 2.851-.072 1.185-.175 2.852-.076 1.185-.177 2.851-2.002 32.34a5.483 5.483 0 01-5.467 5.139H36.837a5.48 5.48 0 01-5.464-5.139l-1.992-32.362-.177-2.851-.073-1.185-.178-2.852-.073-1.185-.177-2.851-.127-2.015a2.852 2.852 0 012.851-3.014h21.288a2.839 2.839 0 012.056.912 2.834 2.834 0 01.743 2.124z" fill="#3F3D56"/><path d="M55.39 187.643l-.178 2.842H28.867l-.178-2.842h26.7zM55.14 191.67l-.175 2.845H29.117l-.177-2.845h26.2zM54.89 195.703l-.175 2.842H29.367l-.177-2.842h25.7z" fill="#9D9CB5"/><path d="M25.658 157.8c11.564 8.371 16.391 21.463 16.391 21.463s-13.936-.479-25.503-8.85C4.979 162.043.161 148.954.161 148.954s13.93.475 25.497 8.846z" fill="#0ABAB5"/><path d="M.152 148.954s14.468 8.032 19.108 14.682c4.64 6.651 22.79 15.627 22.79 15.627" stroke="#535461" stroke-width="2" stroke-miterlimit="10"/><path d="M33.124 140.938c6.293 4.553 8.925 11.679 8.925 11.679s-7.585-.26-13.882-4.813-8.922-11.682-8.922-11.682 7.582.26 13.879 4.816z" fill="#0ABAB5"/><path d="M19.245 136.122s7.873 4.373 10.398 7.991c2.524 3.618 12.406 8.504 12.406 8.504" stroke="#535461" stroke-width="2" stroke-miterlimit="10"/><path d="M51.187 152.255c-7.231 7.95-8.76 18.339-8.76 18.339s10.195-2.503 17.42-10.456c7.224-7.952 8.76-18.338 8.76-18.338s-10.19 2.506-17.42 10.455z" fill="#0ABAB5"/><path d="M68.613 141.803s-9.42 8.149-11.814 13.763c-2.394 5.615-14.373 15.028-14.373 15.028" stroke="#535461" stroke-width="2" stroke-miterlimit="10"/><path d="M316.626 149.458s-5.229-26.025-3.227-29.263c0 0 .072-3.01-.048-6.847v-.44c.352.234.719.446 1.099.633a8.885 8.885 0 005.986.773l-1.583-1.764c-.38-.422-.776-.878-.859-1.436-.082-.557.146-1.055.342-1.552 1.505-3.802 1.584-8.583-1.314-11.486-2.448-2.44-3.044-5.588-5.701-7.816-1.942-1.632-3.009-4.024-4.016-6.337-.852-1.954-1.711-3.925-2.198-5.997-.38-1.62-.533-3.295-1.055-4.876-.523-1.581-1.501-3.118-3.031-3.825-.545-.25-1.15-.392-1.647-.725-.653-.44-1.045-1.156-1.517-1.784-2.398-3.168-10.427-1.302-14.228-.016a7.998 7.998 0 00-2.812 1.56l.034-.058c.029-.047.064-.095.095-.142a5 5 0 00-1.064 1.188c-.554.877-.785 1.9-1.248 2.851-.557 1.125-3.658 4.265-2.325 5.529.094.085.201.153.317.203a2.74 2.74 0 001.584.158l-.057.136a9.244 9.244 0 00-.687 3.514c0 5.206 4.291 9.426 9.59 9.426a9.68 9.68 0 002.936-.453c.022.12.041.24.064.361 0 .048.015.095.022.143l-.168.234a.347.347 0 00-.029-.041l-4.972 6.951c-.76.536-5.138 3.704-5.385 6.08a478.094 478.094 0 00-.519 5.646l-.035.653a1.949 1.949 0 01-1.584.428c-1.552-.254-1.552 5.703-1.552 5.703s-1.032.95-1.742.127c-.709-.824-2.584 1.967-2.584 1.967l-11.751.507-.269.016-.634-1.961a.826.826 0 00-1.178-.469l-.044.025-.082.057-.042.038a.666.666 0 00-.063.067l-.038.044-.019.019a.795.795 0 00-.114.71l.545 1.682c-2.268.456-4.587 1.743-2.696 5.285l-9.584-1.771 3.101 2.604 16.007 3.305c-.212.38-.072.931.59 1.708 2.85 3.349 8.044 4.258 10.135 4.492a17.992 17.992 0 002.056 3.486l-.181 3.336s-5.293 25.429-6.262 26.719c.489-.555.937-1.145 1.34-1.765-1.536 5.224-3.684 12.375-4.247 13.446-.906 1.711-1.746 8.634-.713 9.078.317.136 1.223.069 2.515-.029v.574l-.057 21.731s.26 13.33-.453 14.6c-.713 1.271-.903 3.935-.903 3.935s-2.85 5.257-5.109 7.37a.35.35 0 01-.05.044l-.07-.494s-2.714 3.428-8.72 3.235c0 0-3.614 2.351 1.746 2.477 5.359.127 12.203-.19 12.203-.19s4.78-7.287 8.783-6.336v5.522h1.226v-5.611a5.026 5.026 0 002.182-3.305 4.019 4.019 0 00-1.431-3.716 2.378 2.378 0 01-.783-1.736l-.044.038c0-.111-.029-.225-.041-.343-.352-2.851-.792-8.735.763-13.088 2.132-5.969 2.778-14.283 1.226-19.232a44.194 44.194 0 01-1.232-4.819 58.272 58.272 0 01-.105-.586c1.061.143 2.112.355 3.145.634 3.595.991 11.46 1.175 18.174 1.121.016.184.035.377.057.57.12 1.344.37 2.672.748 3.967.842 2.535 1.229 13.71 1.229 13.71s1.086 9.188.494 12.927c-.317 2.078-.634 4.166-.814 6.263v.042s-1.78 5.069-3.082 7.822c-.032.07-.066.14-.098.206a4.123 4.123 0 00-1.017.225s-1.745 3.485-3.484 4.062c-1.739.577-1.162 2.475 2.775 1.777 3.937-.697 9.882-1.267 9.882-1.267l.256-3.555 1.21-1.514-.317 3.545 1.289-.253-.171-4.312 1.98-2.478s2.391-2.129-1.162-6.318v.092c-.038-.06-.073-.124-.114-.184v-.019c-.59-.912-1.058-2.614-.2-5.633a124.484 124.484 0 002.455-10.408s3.465-13.266-.7-19.543h.183a10.586 10.586 0 01-.953-3.139c3.082-.178 6.107-.735 8.574-1.939-.01-.013-1.495-31.494-2.724-36.506zM277.5 127.501v.063l-.633.032.633-.095zm-2.172.301a.697.697 0 00-.285.136 2.814 2.814 0 00-.498 1.302l-.988-.221s-.694-.149-1.691-.317l-.472-.475c1.298-.108 2.648-.267 3.934-.425z" fill="url(#prefix__paint1_linear)"/><path d="M308.024 235.577l-.377 4.489 1.263-.253-.19-4.87-.696.634z" fill="#1D2366"/><path d="M279.192 214.26c-1.524 4.341-1.093 10.199-.751 13.044.127 1.052.244 1.692.244 1.692s-2.277 5.19-2.467 5.386c-.19.197-6.702 4.173-6.702 4.173l-4.552 2.658s-4.618-2.024-2.404-2.721c.453-.182.86-.46 1.194-.814 2.217-2.107 5.001-7.345 5.001-7.345s.19-2.658.887-3.922c.697-1.264.444-14.549.444-14.549l.054-21.656v-2.823l8.662.063c.055.959.18 1.912.374 2.852a43.585 43.585 0 001.207 4.803c1.526 4.94.893 13.212-1.191 19.159z" fill="#FFB0B1"/><path opacity=".1" d="M278.685 228.996s-2.277 5.19-2.467 5.386c-.19.197-6.702 4.173-6.702 4.173l-4.552 2.658s-4.618-2.024-2.404-2.721c.453-.182.86-.46 1.194-.814l.197 1.384 1.517-.063 12.986-11.688c.114 1.045.231 1.685.231 1.685z" fill="#000"/><path d="M278.527 227.605l-13.059 11.767-1.517.064-.317-2.218s-2.654 3.415-8.552 3.225c0 0-3.541 2.342 1.707 2.469 5.249.126 11.951-.191 11.951-.191s4.681-7.287 8.599-6.336v5.503h1.203v-5.554a4.99 4.99 0 002.135-3.295 4.035 4.035 0 00-1.397-3.701 2.382 2.382 0 01-.753-1.733z" fill="#1D2366"/><path d="M309.227 221.028c-.842 3.01-.383 4.705.193 5.614v.019a10.363 10.363 0 011.514 3.698l.051.285-5.942 8.665-3.224 1.267s-5.185-1.771-4.238-2.278c.238-.123.608-.782 1.033-1.692 1.267-2.74 3.015-7.797 3.015-7.797v-.041c.184-2.088.475-4.17.798-6.242.58-3.729-.485-12.882-.485-12.882s-.38-11.131-1.203-13.662a20.868 20.868 0 01-.738-3.942 41.275 41.275 0 01-.209-2.889s3.414-4.753 9.673.38c.5.409.941.887 1.308 1.419 4.323 6.153.842 19.708.842 19.708s-.871 4.93-2.388 10.37z" fill="#FFB0B1"/><path opacity=".1" d="M310.995 230.644l-5.942 8.665-3.225 1.268s-5.184-1.771-4.237-2.278c.237-.124.608-.783 1.032-1.692 2.195-.019 3.332 2.072 3.332 2.072l2.781-.444s3.668-7.211 4.491-7.651c.824-.441.127-3.292.127-3.292v-.726c.022.025.041.054.066.079v.019a10.363 10.363 0 011.514 3.698l.061.282z" fill="#000"/><path d="M302.145 238.866s-1.583-2.909-4.618-1.835c0 0-1.707 3.485-3.414 4.049-1.707.564-1.137 2.465 2.721 1.771 3.857-.693 9.673-1.267 9.673-1.267l.253-3.545 3.921-4.997s2.338-2.119-1.14-6.292v.725s.697 2.852-.127 3.292c-.823.441-4.478 7.655-4.478 7.655l-2.791.444z" fill="#1D2366"/><path opacity=".1" d="M278.812 187.44c.054.958.179 1.912.373 2.852-3.566-.523-6.876-.263-9.045-.092v-2.823l8.672.063zM311.125 191.74s-5.068.247-11.111.297c-.171-1.584-.209-2.889-.209-2.889s3.414-4.753 9.672.38c.501.409.941.887 1.309 1.419.098.271.211.535.339.793z" fill="#000"/><path d="M311.124 191.169s-22.196 1.074-28.961-.824c-6.766-1.897-13.471-.253-14.481-.693-1.011-.441-.19-7.338.696-9.046.887-1.708 5.752-18.979 5.752-18.979l4.682-24.415 4.931-1.359.348-.098 8.593-2.37 6.297-1.74s12.52 48.898 11.447 52.503a9.238 9.238 0 00-.184 4.243c.164.962.46 1.897.88 2.778z" fill="#F1D427"/><path d="M262.494 120.515s-4.435 4.752-1.077 7.401c3.357 2.649 5.565.253 5.565.253l-4.488-7.654z" fill="#C7DAF5"/><path opacity=".1" d="M262.494 120.515s-4.435 4.752-1.077 7.401c3.357 2.649 5.565.253 5.565.253l-4.488-7.654z" fill="#000"/><path d="M298.319 89.268s-.519.495-1.302 1.223a178.977 178.977 0 01-4.228 3.844c-2.027 1.764-3.699 3.06-3.101 1.955.599-1.106.485-3.033.187-4.835-.022-.12-.041-.241-.063-.358a33.37 33.37 0 00-.979-3.916s3.275-4.233 5.087-5.903c.674-.634 1.146-.894 1.175-.453.031.592.475 1.9 1.026 3.288a77.902 77.902 0 001.197 2.9 116.1 116.1 0 001.001 2.255z" fill="#FFB0B1"/><path opacity=".1" d="M296.172 84.243a9.403 9.403 0 01-6.297 7.211 33.021 33.021 0 00-1.042-4.273s6.167-7.969 6.262-6.356c.022.611.503 1.967 1.077 3.418zM289.261 93.584l.798-1.125s.529 3.225 2.473 1.803c1.945-1.423 2.04 10.706 2.04 10.706l-2.087 31.217-15.083-.903.428-15.084 1.707-7.604 4.222-11.055 2.512-3.653 2.99-4.302z" fill="#000"/><path d="M294.572 105.161l-1.9 28.227-.2 2.991-8.409-.504-.317-.019-6.334-.38.427-15.088 1.707-7.604 4.222-11.054 2.512-3.653 2.99-4.319.798-1.121s.529 3.225 2.474 1.802l.041-.028c1.9-1.204 1.989 10.75 1.989 10.75z" fill="#F1D427"/><path d="M279.759 110.142s-.757 1.584-2.278 1.327c-1.52-.256-1.517 5.703-1.517 5.703s-1.01.951-1.707.127c-.697-.824-2.534 1.961-2.534 1.961l-11.51.507s5.122 2.342 4.118 9.426c0 0 17.388-1.077 17.958-2.722.57-1.644-2.53-16.329-2.53-16.329z" fill="#fff"/><path opacity=".03" d="M279.759 110.142s-.757 1.584-2.278 1.327c-1.52-.256-1.517 5.703-1.517 5.703s-1.01.951-1.707.127c-.697-.824-2.534 1.961-2.534 1.961l-11.51.507s5.122 2.342 4.118 9.426c0 0 17.388-1.077 17.958-2.722.57-1.644-2.53-16.329-2.53-16.329z" fill="#000"/><path d="M246.309 123.49l3.034 2.592 24.977 5.25-3.097-3.162-24.914-4.68zM289.308 94.582c-.415.634-1.603 3.878-2.594 6.71a331.828 331.828 0 00-1.517 4.436s-1.612 10.5-2.436 12.398c-.823 1.898-.377 9.299-.377 9.299l-3.069 18.278s-1.39 9.426-3.538 15.056c-2.119 5.542-4.478 8.14-4.551 8.222.95-1.286 6.129-26.614 6.129-26.614l1.71-31.943s.25-3.036.504-5.631c.253-2.594 5.384-6.137 5.384-6.137l4.947-7.037c.498.666.165 1.825-.592 2.963z" fill="#fff"/><path d="M276.408 135.634s-7.285-.317-10.814-4.556c-3.528-4.239 8.156-1.692 8.156-1.692l3.038.697-.38 5.551z" fill="#FFB0B1"/><path opacity=".1" d="M310.428 184.151a9.238 9.238 0 00-.184 4.243c-7.947.564-16.448-1.585-16.448-1.585-1.583 1.458-5.755 3.606-5.755 3.606l-2.274-28.198c-1.454-3.802-2.024-23.722-2.024-23.722s.13-1.042.317-2.604c0-.038 0-.079.016-.117.567-4.363 1.691-12.553 2.242-13.659.76-1.521-2.337-5.567-2.337-5.567l1.409-12.024.171-1.451c2.971-1.328 5.248-5.567 5.248-5.567l1.749-3.064c1.9-1.22 1.998 10.735 1.998 10.735l-1.9 28.227 6.297-1.74s12.548 48.882 11.475 52.487z" fill="#000"/><path d="M318.583 186.1c-8.662 4.302-24.407.317-24.407.317-1.583 1.457-5.755 3.605-5.755 3.605l-2.277-28.198c-1.451-3.802-2.021-23.722-2.021-23.722s1.831-14.862 2.591-16.38c.222-.444.114-1.103-.149-1.812a22.94 22.94 0 01-1.387-10.611l.608-5.168.168-1.448c2.974-1.33 5.251-5.57 5.251-5.57l1.584-2.775 2.914-5.114 1.381-2.42.234.212 1.79 1.622 1.9 1.584c2.48 2.091 6.765 5.773 8.976 8.026 1.945 1.983 2.559 9.698 2.737 15.506.117 3.824.047 6.821.047 6.821-1.96 3.229 3.168 29.149 3.168 29.149 1.194 5.009 2.647 36.376 2.647 36.376z" fill="#fff"/><path opacity=".03" d="M301.955 97.05s-5.945 11.321-5.254 15.623c.69 4.303 2.654 9.173 1.707 10.31a3.502 3.502 0 01-2.784 1.391c-.951.063-3.484 1.834-3.484 2.025 0 .19-2.341.19-4.435 1.077-2.093.887-5.184 1.391-5.184 1.391s-6.018-.19-6.579.38c-.561.57-1.137 3.982.063 6.704 1.201 2.722 2.534 4.753 3.541 5.123 1.008.371 7.399-1.771 12.584-2.278 5.185-.507 10.813-4.616 10.813-4.616s6.199-2.218 7.285-5.947c1.086-3.729-1.327-24.225-1.327-24.225s-1.824-9.553-6.946-6.958z" fill="#000"/><path opacity=".03" d="M301.195 96.1s-5.945 11.323-5.248 15.623c.697 4.299 2.654 9.172 1.704 10.313a3.49 3.49 0 01-2.781 1.391c-.95.063-3.484 1.834-3.484 2.024 0 .19-2.341.19-4.434 1.074-2.094.884-5.185 1.391-5.185 1.391s-6.018-.19-6.576.38c-.557.571-1.14 3.986.064 6.705 1.203 2.718 2.534 4.752 3.541 5.123 1.007.37 7.399-1.771 12.583-2.275 5.185-.504 10.814-4.62 10.814-4.62s6.195-2.217 7.269-5.943c1.073-3.726-1.327-24.229-1.327-24.229s-1.819-9.55-6.94-6.958z" fill="#000"/><path d="M301.768 96.48s-5.945 11.323-5.248 15.623c.697 4.299 2.654 9.172 1.707 10.31a3.48 3.48 0 01-2.784 1.394c-.95.063-3.484 1.834-3.484 2.021 0 .187-2.337.19-4.434 1.077-2.097.888-5.185 1.391-5.185 1.391s-6.018-.19-6.579.381c-.56.57-1.137 3.985.064 6.704 1.2 2.718 2.534 4.752 3.541 5.123 1.007.371 7.399-1.771 12.584-2.278 5.184-.507 10.813-4.616 10.813-4.616s6.198-2.218 7.285-5.947c1.086-3.729-1.312-24.226-1.312-24.226s-1.849-9.536-6.968-6.957z" fill="#fff"/><path opacity=".1" d="M301.638 126.851s-4.751-.95-3.097.634c1.653 1.584 1.644 2.972 3.668 2.909 2.023-.064-.571-3.543-.571-3.543zM309.667 160.937s-2.147 1.454 1.961 4.806c4.108 3.352-1.961-4.806-1.961-4.806zM305.569 172.891c0 .19-.76 6.97 2.084 8.665 2.844 1.695-2.084-8.665-2.084-8.665z" fill="#000"/><path d="M260.41 119.751c-2.294.079-7.247.78-4.679 5.573 2.271 4.243 6.088 1.407 8.235-.744a8.092 8.092 0 00-3.556-4.829zM263.995 124.543l.096-.099-.096.099z" fill="#FFB0B1"/><path opacity=".1" d="M301.008 90.415c-2.432 1.664-4.472 3.067-4.871 3.359-1.09.808-3.168 5.55-4.507 7.971-1.068 1.949-4.536 2.45-5.844 2.573l.168-1.448c2.974-1.331 5.251-5.57 5.251-5.57l5.879-10.31 2.024 1.841 1.9 1.584z" fill="#000"/><path d="M301.008 90.225c-2.432 1.664-4.472 3.067-4.871 3.362-1.09.805-3.168 5.548-4.507 7.968-1.068 1.949-4.536 2.45-5.844 2.573l.168-1.448c2.974-1.331 5.251-5.57 5.251-5.57l5.879-10.31 2.024 1.835s.76.627 1.9 1.59z" fill="#DCE7FF"/><path d="M296.327 82.152a9.4 9.4 0 01-6.994 9.087 9.392 9.392 0 01-11.02-5.348 9.407 9.407 0 01-.352-6.524 9.393 9.393 0 0118.366 2.785z" fill="#FFB0B1"/><path opacity=".1" d="M312.721 113.757a8.353 8.353 0 01-3.031-3.257c-.529-1.046-.881-2.253-1.783-2.995-.814-.665-1.901-.826-2.914-1.124-3.332-.986-6.126-4.027-6.231-7.5-.05-1.635.46-3.266.229-4.885a5.42 5.42 0 00-1.058-2.52 8.679 8.679 0 00-.916-.985c-.443-.418-.909-.823-1.314-1.267a4.867 4.867 0 01-.665-.903 4.356 4.356 0 01-.365-.84c-.633-1.939-.057-4.239-.753-6.2l-.038-.108c-.263-.697-.798-1.394-1.543-1.448-.744-.053-1.381.564-2.09.84-1.486.577-3.088-.406-4.327-1.407-1.238-1.001-2.635-2.145-4.209-1.923-1.042.149-1.866.859-2.825 1.226a3.978 3.978 0 01-.669.193 9.398 9.398 0 014.221-4.75 9.386 9.386 0 0111.74 2.27 9.395 9.395 0 011.941 7.943 77.895 77.895 0 001.197 2.899l1.79 1.622 1.9 1.584c2.48 2.091 6.765 5.773 8.976 8.026 1.945 1.989 2.553 9.701 2.737 15.509z" fill="#000"/><path d="M278.777 72.673c.453-.922.678-1.955 1.219-2.83.795-1.267 2.183-2.078 3.608-2.57 3.721-1.282 11.586-3.145 13.936 0 .462.635.846 1.338 1.485 1.775.488.333 1.077.475 1.613.726 1.498.703 2.454 2.236 2.964 3.802.51 1.565.662 3.244 1.036 4.857.478 2.069 1.317 4.03 2.154 5.978.985 2.3 2.03 4.686 3.93 6.312 2.594 2.218 3.168 5.358 5.575 7.79 2.85 2.89 2.758 7.659 1.289 11.445-.193.497-.412 1.017-.336 1.546.076.529.469 1.011.839 1.432l1.559 1.759c-3.687.89-7.858-1.036-9.575-4.417-.529-1.046-.881-2.25-1.786-2.994-.811-.666-1.901-.824-2.911-1.122-3.332-.988-6.126-4.033-6.23-7.506-.051-1.631.459-3.263.228-4.879a5.389 5.389 0 00-1.061-2.535c-.871-1.137-2.186-1.9-2.895-3.168-1.201-2.12-.288-4.873-1.153-7.148-.266-.697-.798-1.394-1.543-1.448-.744-.053-1.38.564-2.093.84-1.482.577-3.085-.402-4.323-1.407-1.239-1.004-2.636-2.145-4.213-1.92-1.042.146-1.862.856-2.822 1.226-.71.273-2.147.517-2.768-.082-1.312-1.207 1.726-4.334 2.274-5.462z" fill="#591D4B"/><path opacity=".1" d="M310.953 109.232c-.532-1.045-.88-2.249-1.786-2.991-.811-.665-1.9-.827-2.914-1.124-3.329-.986-6.122-4.031-6.23-7.503-.051-1.632.459-3.267.231-4.883a5.413 5.413 0 00-1.061-2.518c-.874-1.138-2.188-1.901-2.895-3.169-1.2-2.116-.288-4.87-1.156-7.148-.263-.694-.798-1.39-1.539-1.448-.741-.057-1.384.568-2.094.843-1.482.577-3.088-.405-4.323-1.406-1.235-1.002-2.638-2.145-4.213-1.924-1.042.15-1.865.859-2.822 1.227-.709.272-2.15.52-2.771-.08-1.305-1.267 1.733-4.388 2.277-5.51.453-.925.678-1.954 1.223-2.829.028-.047.06-.095.092-.142a5.023 5.023 0 00-1.042 1.184c-.542.875-.767 1.901-1.22 2.83-.548 1.121-3.585 4.252-2.277 5.51.633.602 2.059.355 2.768.082.95-.37 1.78-1.08 2.822-1.226 1.584-.225 2.978.919 4.213 1.92 1.235 1.001 2.85 1.983 4.326 1.407.71-.276 1.331-.897 2.091-.84.76.057 1.267.75 1.542 1.448.865 2.275-.047 5.028 1.153 7.148.71 1.245 2.024 2.024 2.895 3.168a5.389 5.389 0 011.061 2.535c.231 1.616-.279 3.247-.228 4.88.105 3.484 2.898 6.516 6.23 7.505 1.004.298 2.1.456 2.911 1.122.909.744 1.267 1.948 1.786 2.994 1.717 3.38 5.888 5.307 9.575 4.416l-.735-.83c-3.196.048-6.429-1.771-7.89-4.648z" fill="#000"/><path opacity=".1" d="M289.118 94.772c-.415.634-1.603 3.878-2.594 6.711-.928-.362-1.771-2.665-1.771-2.665l4.948-7.04c.507.697.174 1.853-.583 2.994z" fill="#000"/><path d="M289.308 94.582c-.415.633-1.603 3.878-2.594 6.71-.928-.358-1.771-2.664-1.771-2.664l4.948-7.037c.507.694.174 1.853-.583 2.99z" fill="#DCE7FF"/><path d="M260.543 126.95l-2.743-8.653a.795.795 0 01.051-.618.815.815 0 01.474-.399.811.811 0 011.014.526l2.743 8.643-.273 1.809-1.266-1.308z" fill="#BE8B87"/><path opacity=".1" d="M258.059 117.537a.811.811 0 011.017.525l2.743 8.644-.206 1.356.2.209.272-1.809-2.759-8.643a.806.806 0 00-1.434-.21c.053-.029.11-.053.167-.072z" fill="#fff"/><path d="M260.543 126.95l1.539-.488-.225 1.482-.047.327-.45-.469-.817-.852z" fill="#EFC8C4"/><path d="M261.36 127.802a.31.31 0 01.098-.082.14.14 0 01.149 0 .438.438 0 01.054.085.266.266 0 00.083.087.26.26 0 00.113.043l-.048.317-.449-.45z" fill="#727A9C"/><path d="M257.784 121.37s5.501-.031 4.206 2.31-3.319 2.623-3.319 2.623l-.887-4.933z" fill="#FFB0B1"/><path d="M223.567 16.292h-.237c-9.451 0-17.81 5.003-22.618 12.385-4.808-7.382-13.166-12.385-22.618-12.385h-.237a26.919 26.919 0 00-18.866 7.972 26.937 26.937 0 00-7.8 18.943c0 8.811 3.858 21.313 11.38 31.601 14.333 19.603 38.141 36.753 38.141 36.753s23.809-17.147 38.138-36.753c7.525-10.288 11.38-22.79 11.38-31.601a26.938 26.938 0 00-7.799-18.942 26.917 26.917 0 00-18.864-7.973zm-3.398 60.024a5.337 5.337 0 01-4.963-3.428h-5.651a1.783 1.783 0 01-1.682-1.217l-1.735-5.23-5.492 19.197a1.78 1.78 0 01-1.704 1.283h-.111a1.754 1.754 0 01-1.647-1.47l-5.66-34.054-4.137 20.15a1.768 1.768 0 01-1.713 1.341h-7.96a1.774 1.774 0 01-1.703-1.074 1.766 1.766 0 010-1.39 1.78 1.78 0 011.003-.962c.224-.085.462-.123.7-.113h6.566l5.86-27.093a1.775 1.775 0 012.913-.909c.306.275.508.648.571 1.055l5.78 34.738 4.922-17.176a1.744 1.744 0 011.657-1.267h.034a1.769 1.769 0 011.679 1.217l3.139 9.445h4.301a5.31 5.31 0 017.085-3.241 5.313 5.313 0 012.685 7.316 5.311 5.311 0 01-4.728 2.895l-.009-.013z" fill="#0ABAB5"/></g><defs><linearGradient id="prefix__paint0_linear" x1="112.861" y1="245.507" x2="112.861" y2="50.545" gradientUnits="userSpaceOnUse"><stop stop-color="gray" stop-opacity=".25"/><stop offset=".54" stop-color="gray" stop-opacity=".12"/><stop offset="1" stop-color="gray" stop-opacity=".1"/></linearGradient><linearGradient id="prefix__paint1_linear" x1="70699.2" y1="147101" x2="70699.2" y2="47025.7" gradientUnits="userSpaceOnUse"><stop stop-color="gray" stop-opacity=".25"/><stop offset=".54" stop-color="gray" stop-opacity=".12"/><stop offset="1" stop-color="gray" stop-opacity=".1"/></linearGradient><clipPath id="prefix__clip0"><path fill="#fff" d="M0 0h350v248H0z"/></clipPath></defs></svg>