<svg width="48" height="48" viewBox="0 0 48 48" fill="none" xmlns="http://www.w3.org/2000/svg">
    <path
        d="M40.7873 6.74868H31.8032V5.18805C31.8032 4.63972 31.3392 4.17575 30.7909 4.17575H29.1037C28.8928 3.16344 28.3866 2.2355 27.6696 1.51845C26.7416 0.59051 25.4341 0 24 0C22.5659 0 21.2583 0.59051 20.3304 1.51845C19.6134 2.2355 19.1072 3.16344 18.8963 4.17575H17.2091C16.6608 4.17575 16.1968 4.63972 16.1968 5.18805V6.74868H7.21265C6.66432 6.74868 6.20035 7.21265 6.20035 7.76098V46.9877C6.20035 47.536 6.66432 48 7.21265 48H40.7873C41.3357 48 41.7996 47.536 41.7996 46.9877V7.76098C41.7996 7.21265 41.3357 6.74868 40.7873 6.74868ZM18.2214 7.76098V6.20035H19.8243C20.3726 6.20035 20.8366 5.73638 20.8366 5.18805C20.8366 4.30228 21.174 3.50088 21.7645 2.95255C22.355 2.36204 23.1564 2.0246 24 2.0246C24.8858 2.0246 25.6872 2.36204 26.2355 2.95255C26.826 3.54306 27.1634 4.34446 27.1634 5.18805C27.1634 5.73638 27.6274 6.20035 28.1757 6.20035H29.7786V7.76098V9.32162H18.2214V7.76098ZM39.775 45.9754H8.22495V8.77329H16.1968V10.3339C16.1968 10.8822 16.6608 11.3462 17.2091 11.3462H30.7909C31.3392 11.3462 31.8032 10.8822 31.8032 10.3339V8.77329H39.775V45.9754Z"
        fill="#ADB3B2" />
    <path
        d="M12.1476 24.5906H13.9614V26.4043C13.9614 26.9526 14.4253 27.4166 14.9737 27.4166H20.9631C21.5114 27.4166 21.9754 26.9526 21.9754 26.4043V24.5906H23.7891C24.3375 24.5906 24.8014 24.1266 24.8014 23.5783V17.5888C24.8014 17.0405 24.3375 16.5765 23.7891 16.5765H21.9754V14.7628C21.9754 14.2145 21.5114 13.7505 20.9631 13.7505H14.9737C14.4253 13.7505 13.9614 14.2145 13.9614 14.7628V16.5765H12.1476C11.5993 16.5765 11.1353 17.0405 11.1353 17.5888V23.5783C11.1353 24.1266 11.5993 24.5906 12.1476 24.5906ZM13.16 18.6011H14.9737C15.522 18.6011 15.986 18.1371 15.986 17.5888V15.7751H19.9508V17.5888C19.9508 18.1371 20.4148 18.6011 20.9631 18.6011H22.7768V22.566H20.9631C20.4148 22.566 19.9508 23.0299 19.9508 23.5783V25.392H15.986V23.5783C15.986 23.0299 15.522 22.566 14.9737 22.566H13.16V18.6011Z"
        fill="#F1D427" />
    <path
        d="M27.8383 15.3534C27.8383 15.9017 28.3023 16.3657 28.8506 16.3657H34.84C35.3884 16.3657 35.8523 15.9017 35.8523 15.3534C35.8523 14.805 35.3884 14.3411 34.84 14.3411H28.8506C28.2601 14.3411 27.8383 14.805 27.8383 15.3534Z"
        fill="#ADB3B2" />
    <path
        d="M34.7979 20.5413H28.8506C28.3023 20.5413 27.8383 21.0052 27.8383 21.5536C27.8383 22.1019 28.3023 22.5659 28.8506 22.5659H34.84C35.3884 22.5659 35.8523 22.1019 35.8523 21.5536C35.8102 21.0052 35.3884 20.5413 34.7979 20.5413Z"
        fill="#ADB3B2" />
    <path
        d="M34.7979 26.7415H28.8506C28.3023 26.7415 27.8383 27.2054 27.8383 27.7538C27.8383 28.3021 28.3023 28.7661 28.8506 28.7661H34.84C35.3884 28.7661 35.8523 28.3021 35.8523 27.7538C35.8102 27.2054 35.3884 26.7415 34.7979 26.7415Z"
        fill="#ADB3B2" />
    <path
        d="M34.7979 32.9421H12.1476C11.5993 32.9421 11.1353 33.4061 11.1353 33.9544C11.1353 34.5028 11.5993 34.9667 12.1476 34.9667H34.7979C35.3462 34.9667 35.8102 34.5028 35.8102 33.9544C35.8102 33.3639 35.3884 32.9421 34.7979 32.9421Z"
        fill="#ADB3B2" />
    <path
        d="M34.7979 39.1423H12.1476C11.5993 39.1423 11.1353 39.6063 11.1353 40.1546C11.1353 40.703 11.5993 41.1669 12.1476 41.1669H34.7979C35.3462 41.1669 35.8102 40.703 35.8102 40.1546C35.8102 39.5641 35.3884 39.1423 34.7979 39.1423Z"
        fill="#ADB3B2" />
</svg>