<svg width="48" height="48" viewBox="0 0 48 48" fill="none" xmlns="http://www.w3.org/2000/svg">
    <path
        d="M41.4925 21.9189C42.9184 21.9189 44.0743 20.763 44.0743 19.3372C44.0743 17.9113 42.9184 16.7554 41.4925 16.7554C40.0666 16.7554 38.9107 17.9113 38.9107 19.3372C38.9107 20.763 40.0666 21.9189 41.4925 21.9189Z"
        fill="#F1D427" />
    <path
        d="M41.4925 12.8562C37.9096 12.8562 35.0117 15.7541 35.0117 19.337C35.0117 22.6037 37.4354 25.2909 40.5441 25.7651V33.6685C40.5441 40.5708 34.959 46.2086 28.1094 46.2086C21.2598 46.2086 15.6747 40.5708 15.6747 33.6685V27.8727C23.0512 27.2404 28.847 21.0757 28.847 13.5412C28.847 10.1164 27.6352 6.84962 25.4222 4.26784C25.6857 3.84632 25.8437 3.37212 25.8437 2.84523C25.8437 1.26454 24.5792 0 22.9985 0C21.4178 0 20.1533 1.26454 20.1533 2.84523C20.1533 4.42591 21.4178 5.69045 22.9985 5.69045C23.3673 5.69045 23.7362 5.63776 24.0523 5.47969C25.9491 7.74534 27.0029 10.5379 27.0029 13.5412C27.0029 20.4435 21.3651 26.0812 14.4628 26.0812C7.56053 26.0812 1.92277 20.4435 1.92277 13.5412C1.92277 10.4852 3.02925 7.58727 4.97875 5.37431C5.40027 5.58507 5.82178 5.69045 6.29599 5.69045C7.87667 5.69045 9.14121 4.42591 9.14121 2.84523C9.14121 1.26454 7.87667 0 6.29599 0C4.71531 0 3.45076 1.26454 3.45076 2.84523C3.45076 3.26674 3.55614 3.63557 3.71421 4.00439C1.39588 6.63886 0.0786438 9.95829 0.0786438 13.5412C0.0786438 21.2865 6.19061 27.5565 13.8306 27.8727V33.6158C13.8306 41.5719 20.2587 48 28.1094 48C35.9601 48 42.3882 41.5719 42.3882 33.6158V25.7124C45.4969 25.2382 47.9206 22.551 47.9206 19.2843C47.9733 15.7541 45.0227 12.8562 41.4925 12.8562ZM41.4925 23.921C38.9634 23.921 36.9085 21.8661 36.9085 19.337C36.9085 16.8079 38.9634 14.753 41.4925 14.753C44.0216 14.753 46.0764 16.8079 46.0764 19.337C46.0764 21.8661 44.0216 23.921 41.4925 23.921Z"
        fill="#ADB2B2" />
</svg>